<svg width="615" height="41" viewBox="0 0 615 41" fill="none" xmlns="http://www.w3.org/2000/svg">
<path d="M7.49219 0.625H8.99219V12H7.49219V3.23438L1.89062 12H0.382812V0.625H1.89062V9.39062L7.49219 0.625ZM14.8906 10.9766C15.4062 10.9766 15.8568 10.8203 16.2422 10.5078C16.6276 10.1953 16.8411 9.80469 16.8828 9.33594H18.25C18.224 9.82031 18.0573 10.2812 17.75 10.7188C17.4427 11.1562 17.0312 11.5052 16.5156 11.7656C16.0052 12.026 15.4635 12.1562 14.8906 12.1562C13.7396 12.1562 12.8229 11.7734 12.1406 11.0078C11.4635 10.237 11.125 9.1849 11.125 7.85156V7.60938C11.125 6.78646 11.276 6.05469 11.5781 5.41406C11.8802 4.77344 12.3125 4.27604 12.875 3.92188C13.4427 3.56771 14.112 3.39062 14.8828 3.39062C15.8307 3.39062 16.6172 3.67448 17.2422 4.24219C17.8724 4.8099 18.2083 5.54688 18.25 6.45312H16.8828C16.8411 5.90625 16.6328 5.45833 16.2578 5.10938C15.888 4.75521 15.4297 4.57812 14.8828 4.57812C14.1484 4.57812 13.5781 4.84375 13.1719 5.375C12.7708 5.90104 12.5703 6.66406 12.5703 7.66406V7.9375C12.5703 8.91146 12.7708 9.66146 13.1719 10.1875C13.5729 10.7135 14.1458 10.9766 14.8906 10.9766ZM26.7891 12H25.3438V4.74219H21.4531V12H20V3.54688H26.7891V12ZM28.7266 7.69531C28.7266 6.86719 28.888 6.1224 29.2109 5.46094C29.5391 4.79948 29.9922 4.28906 30.5703 3.92969C31.1536 3.57031 31.8177 3.39062 32.5625 3.39062C33.7135 3.39062 34.6432 3.78906 35.3516 4.58594C36.0651 5.38281 36.4219 6.44271 36.4219 7.76562V7.86719C36.4219 8.6901 36.263 9.42969 35.9453 10.0859C35.6328 10.737 35.1823 11.2448 34.5938 11.6094C34.0104 11.974 33.3385 12.1562 32.5781 12.1562C31.4323 12.1562 30.5026 11.7578 29.7891 10.9609C29.0807 10.1641 28.7266 9.10938 28.7266 7.79688V7.69531ZM30.1797 7.86719C30.1797 8.80469 30.3958 9.55729 30.8281 10.125C31.2656 10.6927 31.849 10.9766 32.5781 10.9766C33.3125 10.9766 33.8958 10.6901 34.3281 10.1172C34.7604 9.53906 34.9766 8.73177 34.9766 7.69531C34.9766 6.76823 34.7552 6.01823 34.3125 5.44531C33.875 4.86719 33.2917 4.57812 32.5625 4.57812C31.849 4.57812 31.2734 4.86198 30.8359 5.42969C30.3984 5.9974 30.1797 6.8099 30.1797 7.86719ZM38.3672 12V3.54688H41.6641C42.7891 3.54688 43.651 3.74479 44.25 4.14062C44.8542 4.53125 45.1562 5.10677 45.1562 5.86719C45.1562 6.25781 45.0391 6.61198 44.8047 6.92969C44.5703 7.24219 44.224 7.48177 43.7656 7.64844C44.276 7.76823 44.6849 8.0026 44.9922 8.35156C45.3047 8.70052 45.4609 9.11719 45.4609 9.60156C45.4609 10.3776 45.1745 10.9714 44.6016 11.3828C44.0339 11.7943 43.2292 12 42.1875 12H38.3672ZM39.8125 8.28906V10.8359H42.2031C42.8073 10.8359 43.2578 10.724 43.5547 10.5C43.8568 10.276 44.0078 9.96094 44.0078 9.55469C44.0078 8.71094 43.388 8.28906 42.1484 8.28906H39.8125ZM39.8125 7.13281H41.6797C43.0339 7.13281 43.7109 6.73698 43.7109 5.94531C43.7109 5.15365 43.0703 4.74479 41.7891 4.71875H39.8125V7.13281ZM50.8828 12.1562C49.737 12.1562 48.8047 11.7812 48.0859 11.0312C47.3672 10.276 47.0078 9.26823 47.0078 8.00781V7.74219C47.0078 6.90365 47.1667 6.15625 47.4844 5.5C47.8073 4.83854 48.2552 4.32292 48.8281 3.95312C49.4062 3.57812 50.0312 3.39062 50.7031 3.39062C51.8021 3.39062 52.6562 3.7526 53.2656 4.47656C53.875 5.20052 54.1797 6.23698 54.1797 7.58594V8.1875H48.4531C48.474 9.02083 48.7161 9.69531 49.1797 10.2109C49.6484 10.7214 50.2422 10.9766 50.9609 10.9766C51.4714 10.9766 51.9036 10.8724 52.2578 10.6641C52.612 10.4557 52.9219 10.1797 53.1875 9.83594L54.0703 10.5234C53.362 11.612 52.2995 12.1562 50.8828 12.1562ZM50.7031 4.57812C50.1198 4.57812 49.6302 4.79167 49.2344 5.21875C48.8385 5.64062 48.5938 6.23438 48.5 7H52.7344V6.89062C52.6927 6.15625 52.4948 5.58854 52.1406 5.1875C51.7865 4.78125 51.3073 4.57812 50.7031 4.57812ZM55.7891 10.8203L56.2891 10.2031C56.8516 9.47396 57.1719 8.38021 57.25 6.92188L57.3828 3.54688H62.8281V10.8203H63.9141V14.4844H62.4688V12H56.5703V14.4844H55.125L55.1328 10.8203H55.7891ZM57.5 10.8203H61.3828V4.88281H58.7812L58.6953 6.89844C58.6068 8.58073 58.2083 9.88802 57.5 10.8203ZM68.2812 9.88281L70.25 3.54688H71.7969L68.3984 13.3047C67.8724 14.7109 67.0365 15.4141 65.8906 15.4141L65.6172 15.3906L65.0781 15.2891V14.1172L65.4688 14.1484C65.9583 14.1484 66.3385 14.0495 66.6094 13.8516C66.8854 13.6536 67.112 13.2917 67.2891 12.7656L67.6094 11.9062L64.5938 3.54688H66.1719L68.2812 9.88281ZM76.4922 12.1562C75.3464 12.1562 74.4141 11.7812 73.6953 11.0312C72.9766 10.276 72.6172 9.26823 72.6172 8.00781V7.74219C72.6172 6.90365 72.776 6.15625 73.0938 5.5C73.4167 4.83854 73.8646 4.32292 74.4375 3.95312C75.0156 3.57812 75.6406 3.39062 76.3125 3.39062C77.4115 3.39062 78.2656 3.7526 78.875 4.47656C79.4844 5.20052 79.7891 6.23698 79.7891 7.58594V8.1875H74.0625C74.0833 9.02083 74.3255 9.69531 74.7891 10.2109C75.2578 10.7214 75.8516 10.9766 76.5703 10.9766C77.0807 10.9766 77.513 10.8724 77.8672 10.6641C78.2214 10.4557 78.5312 10.1797 78.7969 9.83594L79.6797 10.5234C78.9714 11.612 77.9089 12.1562 76.4922 12.1562ZM76.3125 4.57812C75.7292 4.57812 75.2396 4.79167 74.8438 5.21875C74.4479 5.64062 74.2031 6.23438 74.1094 7H78.3438V6.89062C78.3021 6.15625 78.1042 5.58854 77.75 5.1875C77.3958 4.78125 76.9167 4.57812 76.3125 4.57812ZM86.3359 10.0859L89.2109 3.54688H91.0156V12H89.5703V5.85156L86.8359 12H85.8359L83.0469 5.71875V12H81.6016V3.54688H83.4766L86.3359 10.0859ZM104.227 12H102.781V4.74219H98.8906V12H97.4375V3.54688H104.227V12ZM113.688 7.86719C113.688 9.15365 113.393 10.1901 112.805 10.9766C112.216 11.763 111.419 12.1562 110.414 12.1562C109.388 12.1562 108.581 11.8307 107.992 11.1797V15.25H106.547V3.54688H107.867L107.938 4.48438C108.526 3.75521 109.344 3.39062 110.391 3.39062C111.406 3.39062 112.208 3.77344 112.797 4.53906C113.391 5.30469 113.688 6.36979 113.688 7.73438V7.86719ZM112.242 7.70312C112.242 6.75 112.039 5.9974 111.633 5.44531C111.227 4.89323 110.669 4.61719 109.961 4.61719C109.086 4.61719 108.43 5.00521 107.992 5.78125V9.82031C108.424 10.5911 109.086 10.9766 109.977 10.9766C110.669 10.9766 111.219 10.7031 111.625 10.1562C112.036 9.60417 112.242 8.78646 112.242 7.70312ZM121 3.54688H122.445V12H121V5.83594L117.102 12H115.656V3.54688H117.102V9.71875L121 3.54688ZM131.672 12H130.227V8.39062H126.344V12H124.891V3.54688H126.344V7.21094H130.227V3.54688H131.672V12ZM134.125 3.54688H135.578V10.8203H139.469V3.54688H140.914V10.8203H141.922L141.781 14.5078H140.484V12H134.125V3.54688ZM148.953 3.54688H150.398V12H148.953V5.83594L145.055 12H143.609V3.54688H145.055V9.71875L148.953 3.54688ZM159.633 12H158.188V4.74219H154.297V12H152.844V3.54688H159.633V12ZM163.531 6.46094H165.727C166.685 6.47135 167.443 6.72135 168 7.21094C168.557 7.70052 168.836 8.36458 168.836 9.20312C168.836 10.0469 168.549 10.724 167.977 11.2344C167.404 11.7448 166.633 12 165.664 12H162.086V3.54688H163.531V6.46094ZM171.852 12H170.398V3.54688H171.852V12ZM163.531 7.64062V10.8203H165.68C166.221 10.8203 166.641 10.6823 166.938 10.4062C167.234 10.125 167.383 9.74219 167.383 9.25781C167.383 8.78906 167.237 8.40625 166.945 8.10938C166.659 7.80729 166.255 7.65104 165.734 7.64062H163.531ZM183.211 10.0859L186.086 3.54688H187.891V12H186.445V5.85156L183.711 12H182.711L179.922 5.71875V12H178.477V3.54688H180.352L183.211 10.0859ZM195.688 3.54688H197.133V12H195.688V5.83594L191.789 12H190.344V3.54688H191.789V9.71875L195.688 3.54688ZM206.359 12H204.914V8.39062H201.031V12H199.578V3.54688H201.031V7.21094H204.914V3.54688H206.359V12ZM214.156 3.54688H215.602V12H214.156V5.83594L210.258 12H208.812V3.54688H210.258V9.71875L214.156 3.54688ZM222.789 10.0859L225.664 3.54688H227.469V12H226.023V5.85156L223.289 12H222.289L219.5 5.71875V12H218.055V3.54688H219.93L222.789 10.0859ZM235.016 12C234.932 11.8333 234.865 11.5365 234.812 11.1094C234.141 11.8073 233.339 12.1562 232.406 12.1562C231.573 12.1562 230.888 11.9219 230.352 11.4531C229.82 10.9792 229.555 10.3802 229.555 9.65625C229.555 8.77604 229.888 8.09375 230.555 7.60938C231.227 7.11979 232.169 6.875 233.383 6.875H234.789V6.21094C234.789 5.70573 234.638 5.30469 234.336 5.00781C234.034 4.70573 233.589 4.55469 233 4.55469C232.484 4.55469 232.052 4.6849 231.703 4.94531C231.354 5.20573 231.18 5.52083 231.18 5.89062H229.727C229.727 5.46875 229.875 5.0625 230.172 4.67188C230.474 4.27604 230.88 3.96354 231.391 3.73438C231.906 3.50521 232.471 3.39062 233.086 3.39062C234.06 3.39062 234.823 3.63542 235.375 4.125C235.927 4.60938 236.214 5.27865 236.234 6.13281V10.0234C236.234 10.7995 236.333 11.4167 236.531 11.875V12H235.016ZM232.617 10.8984C233.07 10.8984 233.5 10.7812 233.906 10.5469C234.312 10.3125 234.607 10.0078 234.789 9.63281V7.89844H233.656C231.885 7.89844 231 8.41667 231 9.45312C231 9.90625 231.151 10.2604 231.453 10.5156C231.755 10.7708 232.143 10.8984 232.617 10.8984ZM245.43 3.54688V12H243.977V4.74219H241.102L240.93 7.90625C240.836 9.35938 240.591 10.3984 240.195 11.0234C239.805 11.6484 239.182 11.974 238.328 12H237.75V10.7266L238.164 10.6953C238.633 10.6432 238.969 10.3724 239.172 9.88281C239.375 9.39323 239.505 8.48698 239.562 7.16406L239.719 3.54688H245.43ZM253.219 3.54688H254.664V12H253.219V5.83594L249.32 12H247.875V3.54688H249.32V9.71875L253.219 3.54688ZM261.633 5.85938C261.633 5.46354 261.482 5.15104 261.18 4.92188C260.878 4.6875 260.464 4.57031 259.938 4.57031C259.427 4.57031 259 4.70312 258.656 4.96875C258.318 5.23438 258.148 5.54688 258.148 5.90625H256.711C256.711 5.17188 257.018 4.57031 257.633 4.10156C258.247 3.63281 259.016 3.39844 259.938 3.39844C260.927 3.39844 261.698 3.61198 262.25 4.03906C262.802 4.46094 263.078 5.0651 263.078 5.85156C263.078 6.23177 262.964 6.58073 262.734 6.89844C262.505 7.21615 262.18 7.46875 261.758 7.65625C262.742 7.98958 263.234 8.64583 263.234 9.625C263.234 10.401 262.935 11.0156 262.336 11.4688C261.737 11.9219 260.938 12.1484 259.938 12.1484C258.964 12.1484 258.159 11.9115 257.523 11.4375C256.893 10.9583 256.578 10.3125 256.578 9.5H258.016C258.016 9.91146 258.198 10.2656 258.562 10.5625C258.932 10.8542 259.391 11 259.938 11C260.49 11 260.935 10.8724 261.273 10.6172C261.612 10.362 261.781 10.0312 261.781 9.625C261.781 9.15104 261.638 8.8125 261.352 8.60938C261.07 8.40104 260.63 8.29688 260.031 8.29688H258.586V7.07812H260.156C261.141 7.05208 261.633 6.64583 261.633 5.85938ZM269.977 10.0859L272.852 3.54688H274.656V12H273.211V5.85156L270.477 12H269.477L266.688 5.71875V12H265.242V3.54688H267.117L269.977 10.0859ZM282.203 12C282.12 11.8333 282.052 11.5365 282 11.1094C281.328 11.8073 280.526 12.1562 279.594 12.1562C278.76 12.1562 278.076 11.9219 277.539 11.4531C277.008 10.9792 276.742 10.3802 276.742 9.65625C276.742 8.77604 277.076 8.09375 277.742 7.60938C278.414 7.11979 279.357 6.875 280.57 6.875H281.977V6.21094C281.977 5.70573 281.826 5.30469 281.523 5.00781C281.221 4.70573 280.776 4.55469 280.188 4.55469C279.672 4.55469 279.24 4.6849 278.891 4.94531C278.542 5.20573 278.367 5.52083 278.367 5.89062H276.914C276.914 5.46875 277.062 5.0625 277.359 4.67188C277.661 4.27604 278.068 3.96354 278.578 3.73438C279.094 3.50521 279.659 3.39062 280.273 3.39062C281.247 3.39062 282.01 3.63542 282.562 4.125C283.115 4.60938 283.401 5.27865 283.422 6.13281V10.0234C283.422 10.7995 283.521 11.4167 283.719 11.875V12H282.203ZM279.805 10.8984C280.258 10.8984 280.688 10.7812 281.094 10.5469C281.5 10.3125 281.794 10.0078 281.977 9.63281V7.89844H280.844C279.073 7.89844 278.188 8.41667 278.188 9.45312C278.188 9.90625 278.339 10.2604 278.641 10.5156C278.943 10.7708 279.331 10.8984 279.805 10.8984ZM295.125 3.54688H296.57V12H295.125V5.83594L291.227 12H289.781V3.54688H291.227V9.71875L295.125 3.54688ZM309.242 12H307.789V8.9375C307.154 9.10417 306.503 9.1875 305.836 9.1875C304.779 9.1875 303.971 8.91667 303.414 8.375C302.862 7.83333 302.581 7.0625 302.57 6.0625V3.53906H304.016V6.10938C304.042 7.36979 304.648 8 305.836 8C306.503 8 307.154 7.91667 307.789 7.75V3.54688H309.242V12ZM317.031 3.54688H318.477V12H317.031V5.83594L313.133 12H311.688V3.54688H313.133V9.71875L317.031 3.54688ZM324.188 10.9766C324.703 10.9766 325.154 10.8203 325.539 10.5078C325.924 10.1953 326.138 9.80469 326.18 9.33594H327.547C327.521 9.82031 327.354 10.2812 327.047 10.7188C326.74 11.1562 326.328 11.5052 325.812 11.7656C325.302 12.026 324.76 12.1562 324.188 12.1562C323.036 12.1562 322.12 11.7734 321.438 11.0078C320.76 10.237 320.422 9.1849 320.422 7.85156V7.60938C320.422 6.78646 320.573 6.05469 320.875 5.41406C321.177 4.77344 321.609 4.27604 322.172 3.92188C322.74 3.56771 323.409 3.39062 324.18 3.39062C325.128 3.39062 325.914 3.67448 326.539 4.24219C327.169 4.8099 327.505 5.54688 327.547 6.45312H326.18C326.138 5.90625 325.93 5.45833 325.555 5.10938C325.185 4.75521 324.727 4.57812 324.18 4.57812C323.445 4.57812 322.875 4.84375 322.469 5.375C322.068 5.90104 321.867 6.66406 321.867 7.66406V7.9375C321.867 8.91146 322.068 9.66146 322.469 10.1875C322.87 10.7135 323.443 10.9766 324.188 10.9766ZM335.453 4.71875H332.617V12H331.172V4.71875H328.391V3.54688H335.453V4.71875ZM336.148 7.69531C336.148 6.86719 336.31 6.1224 336.633 5.46094C336.961 4.79948 337.414 4.28906 337.992 3.92969C338.576 3.57031 339.24 3.39062 339.984 3.39062C341.135 3.39062 342.065 3.78906 342.773 4.58594C343.487 5.38281 343.844 6.44271 343.844 7.76562V7.86719C343.844 8.6901 343.685 9.42969 343.367 10.0859C343.055 10.737 342.604 11.2448 342.016 11.6094C341.432 11.974 340.76 12.1562 340 12.1562C338.854 12.1562 337.924 11.7578 337.211 10.9609C336.503 10.1641 336.148 9.10938 336.148 7.79688V7.69531ZM337.602 7.86719C337.602 8.80469 337.818 9.55729 338.25 10.125C338.688 10.6927 339.271 10.9766 340 10.9766C340.734 10.9766 341.318 10.6901 341.75 10.1172C342.182 9.53906 342.398 8.73177 342.398 7.69531C342.398 6.76823 342.177 6.01823 341.734 5.44531C341.297 4.86719 340.714 4.57812 339.984 4.57812C339.271 4.57812 338.695 4.86198 338.258 5.42969C337.82 5.9974 337.602 6.8099 337.602 7.86719ZM351.766 4.71875H348.93V12H347.484V4.71875H344.703V3.54688H351.766V4.71875ZM354.75 6.46094H356.945C357.904 6.47135 358.661 6.72135 359.219 7.21094C359.776 7.70052 360.055 8.36458 360.055 9.20312C360.055 10.0469 359.768 10.724 359.195 11.2344C358.622 11.7448 357.852 12 356.883 12H353.305V3.54688H354.75V6.46094ZM363.07 12H361.617V3.54688H363.07V12ZM354.75 7.64062V10.8203H356.898C357.44 10.8203 357.859 10.6823 358.156 10.4062C358.453 10.125 358.602 9.74219 358.602 9.25781C358.602 8.78906 358.456 8.40625 358.164 8.10938C357.878 7.80729 357.474 7.65104 356.953 7.64062H354.75ZM365.625 11.2422C365.625 10.9922 365.698 10.7839 365.844 10.6172C365.995 10.4505 366.219 10.3672 366.516 10.3672C366.812 10.3672 367.036 10.4505 367.188 10.6172C367.344 10.7839 367.422 10.9922 367.422 11.2422C367.422 11.4818 367.344 11.6823 367.188 11.8438C367.036 12.0052 366.812 12.0859 366.516 12.0859C366.219 12.0859 365.995 12.0052 365.844 11.8438C365.698 11.6823 365.625 11.4818 365.625 11.2422ZM382.375 8.39062C382.234 9.59375 381.789 10.5234 381.039 11.1797C380.294 11.8307 379.302 12.1562 378.062 12.1562C376.719 12.1562 375.641 11.6745 374.828 10.7109C374.021 9.7474 373.617 8.45833 373.617 6.84375V5.75C373.617 4.69271 373.805 3.76302 374.18 2.96094C374.56 2.15885 375.096 1.54427 375.789 1.11719C376.482 0.684896 377.284 0.46875 378.195 0.46875C379.404 0.46875 380.372 0.807292 381.102 1.48438C381.831 2.15625 382.255 3.08854 382.375 4.28125H380.867C380.737 3.375 380.453 2.71875 380.016 2.3125C379.583 1.90625 378.977 1.70312 378.195 1.70312C377.237 1.70312 376.484 2.05729 375.938 2.76562C375.396 3.47396 375.125 4.48177 375.125 5.78906V6.89062C375.125 8.125 375.383 9.10677 375.898 9.83594C376.414 10.5651 377.135 10.9297 378.062 10.9297C378.896 10.9297 379.534 10.7422 379.977 10.3672C380.424 9.98698 380.721 9.32812 380.867 8.39062H382.375ZM390.484 4.71875H387.648V12H386.203V4.71875H383.422V3.54688H390.484V4.71875ZM396.984 12C396.901 11.8333 396.833 11.5365 396.781 11.1094C396.109 11.8073 395.307 12.1562 394.375 12.1562C393.542 12.1562 392.857 11.9219 392.32 11.4531C391.789 10.9792 391.523 10.3802 391.523 9.65625C391.523 8.77604 391.857 8.09375 392.523 7.60938C393.195 7.11979 394.138 6.875 395.352 6.875H396.758V6.21094C396.758 5.70573 396.607 5.30469 396.305 5.00781C396.003 4.70573 395.557 4.55469 394.969 4.55469C394.453 4.55469 394.021 4.6849 393.672 4.94531C393.323 5.20573 393.148 5.52083 393.148 5.89062H391.695C391.695 5.46875 391.844 5.0625 392.141 4.67188C392.443 4.27604 392.849 3.96354 393.359 3.73438C393.875 3.50521 394.44 3.39062 395.055 3.39062C396.029 3.39062 396.792 3.63542 397.344 4.125C397.896 4.60938 398.182 5.27865 398.203 6.13281V10.0234C398.203 10.7995 398.302 11.4167 398.5 11.875V12H396.984ZM394.586 10.8984C395.039 10.8984 395.469 10.7812 395.875 10.5469C396.281 10.3125 396.576 10.0078 396.758 9.63281V7.89844H395.625C393.854 7.89844 392.969 8.41667 392.969 9.45312C392.969 9.90625 393.12 10.2604 393.422 10.5156C393.724 10.7708 394.112 10.8984 394.586 10.8984ZM400.602 12V3.54688H403.898C405.023 3.54688 405.885 3.74479 406.484 4.14062C407.089 4.53125 407.391 5.10677 407.391 5.86719C407.391 6.25781 407.273 6.61198 407.039 6.92969C406.805 7.24219 406.458 7.48177 406 7.64844C406.51 7.76823 406.919 8.0026 407.227 8.35156C407.539 8.70052 407.695 9.11719 407.695 9.60156C407.695 10.3776 407.409 10.9714 406.836 11.3828C406.268 11.7943 405.464 12 404.422 12H400.602ZM402.047 8.28906V10.8359H404.438C405.042 10.8359 405.492 10.724 405.789 10.5C406.091 10.276 406.242 9.96094 406.242 9.55469C406.242 8.71094 405.622 8.28906 404.383 8.28906H402.047ZM402.047 7.13281H403.914C405.268 7.13281 405.945 6.73698 405.945 5.94531C405.945 5.15365 405.305 4.74479 404.023 4.71875H402.047V7.13281ZM415.078 3.54688H416.523V12H415.078V5.83594L411.18 12H409.734V3.54688H411.18V9.71875L415.078 3.54688ZM423.711 10.0859L426.586 3.54688H428.391V12H426.945V5.85156L424.211 12H423.211L420.422 5.71875V12H418.977V3.54688H420.852L423.711 10.0859ZM439.555 10.0859L442.43 3.54688H444.234V12H442.789V5.85156L440.055 12H439.055L436.266 5.71875V12H434.82V3.54688H436.695L439.555 10.0859ZM451.781 12C451.698 11.8333 451.63 11.5365 451.578 11.1094C450.906 11.8073 450.104 12.1562 449.172 12.1562C448.339 12.1562 447.654 11.9219 447.117 11.4531C446.586 10.9792 446.32 10.3802 446.32 9.65625C446.32 8.77604 446.654 8.09375 447.32 7.60938C447.992 7.11979 448.935 6.875 450.148 6.875H451.555V6.21094C451.555 5.70573 451.404 5.30469 451.102 5.00781C450.799 4.70573 450.354 4.55469 449.766 4.55469C449.25 4.55469 448.818 4.6849 448.469 4.94531C448.12 5.20573 447.945 5.52083 447.945 5.89062H446.492C446.492 5.46875 446.641 5.0625 446.938 4.67188C447.24 4.27604 447.646 3.96354 448.156 3.73438C448.672 3.50521 449.237 3.39062 449.852 3.39062C450.826 3.39062 451.589 3.63542 452.141 4.125C452.693 4.60938 452.979 5.27865 453 6.13281V10.0234C453 10.7995 453.099 11.4167 453.297 11.875V12H451.781ZM449.383 10.8984C449.836 10.8984 450.266 10.7812 450.672 10.5469C451.078 10.3125 451.372 10.0078 451.555 9.63281V7.89844H450.422C448.651 7.89844 447.766 8.41667 447.766 9.45312C447.766 9.90625 447.917 10.2604 448.219 10.5156C448.521 10.7708 448.909 10.8984 449.383 10.8984ZM461.422 4.71875H458.586V12H457.141V4.71875H454.359V3.54688H461.422V4.71875ZM465.711 12.1562C464.565 12.1562 463.633 11.7812 462.914 11.0312C462.195 10.276 461.836 9.26823 461.836 8.00781V7.74219C461.836 6.90365 461.995 6.15625 462.312 5.5C462.635 4.83854 463.083 4.32292 463.656 3.95312C464.234 3.57812 464.859 3.39062 465.531 3.39062C466.63 3.39062 467.484 3.7526 468.094 4.47656C468.703 5.20052 469.008 6.23698 469.008 7.58594V8.1875H463.281C463.302 9.02083 463.544 9.69531 464.008 10.2109C464.477 10.7214 465.07 10.9766 465.789 10.9766C466.299 10.9766 466.732 10.8724 467.086 10.6641C467.44 10.4557 467.75 10.1797 468.016 9.83594L468.898 10.5234C468.19 11.612 467.128 12.1562 465.711 12.1562ZM465.531 4.57812C464.948 4.57812 464.458 4.79167 464.062 5.21875C463.667 5.64062 463.422 6.23438 463.328 7H467.562V6.89062C467.521 6.15625 467.323 5.58854 466.969 5.1875C466.615 4.78125 466.135 4.57812 465.531 4.57812ZM475.555 10.0859L478.43 3.54688H480.234V12H478.789V5.85156L476.055 12H475.055L472.266 5.71875V12H470.82V3.54688H472.695L475.555 10.0859ZM487.781 12C487.698 11.8333 487.63 11.5365 487.578 11.1094C486.906 11.8073 486.104 12.1562 485.172 12.1562C484.339 12.1562 483.654 11.9219 483.117 11.4531C482.586 10.9792 482.32 10.3802 482.32 9.65625C482.32 8.77604 482.654 8.09375 483.32 7.60938C483.992 7.11979 484.935 6.875 486.148 6.875H487.555V6.21094C487.555 5.70573 487.404 5.30469 487.102 5.00781C486.799 4.70573 486.354 4.55469 485.766 4.55469C485.25 4.55469 484.818 4.6849 484.469 4.94531C484.12 5.20573 483.945 5.52083 483.945 5.89062H482.492C482.492 5.46875 482.641 5.0625 482.938 4.67188C483.24 4.27604 483.646 3.96354 484.156 3.73438C484.672 3.50521 485.237 3.39062 485.852 3.39062C486.826 3.39062 487.589 3.63542 488.141 4.125C488.693 4.60938 488.979 5.27865 489 6.13281V10.0234C489 10.7995 489.099 11.4167 489.297 11.875V12H487.781ZM485.383 10.8984C485.836 10.8984 486.266 10.7812 486.672 10.5469C487.078 10.3125 487.372 10.0078 487.555 9.63281V7.89844H486.422C484.651 7.89844 483.766 8.41667 483.766 9.45312C483.766 9.90625 483.917 10.2604 484.219 10.5156C484.521 10.7708 484.909 10.8984 485.383 10.8984ZM497.422 4.71875H494.586V12H493.141V4.71875H490.359V3.54688H497.422V4.71875ZM504.297 3.54688H505.742V12H504.297V5.83594L500.398 12H498.953V3.54688H500.398V9.71875L504.297 3.54688ZM514.445 12H512.992V8.9375C512.357 9.10417 511.706 9.1875 511.039 9.1875C509.982 9.1875 509.174 8.91667 508.617 8.375C508.065 7.83333 507.784 7.0625 507.773 6.0625V3.53906H509.219V6.10938C509.245 7.36979 509.852 8 511.039 8C511.706 8 512.357 7.91667 512.992 7.75V3.54688H514.445V12ZM520.273 12.1562C519.128 12.1562 518.195 11.7812 517.477 11.0312C516.758 10.276 516.398 9.26823 516.398 8.00781V7.74219C516.398 6.90365 516.557 6.15625 516.875 5.5C517.198 4.83854 517.646 4.32292 518.219 3.95312C518.797 3.57812 519.422 3.39062 520.094 3.39062C521.193 3.39062 522.047 3.7526 522.656 4.47656C523.266 5.20052 523.57 6.23698 523.57 7.58594V8.1875H517.844C517.865 9.02083 518.107 9.69531 518.57 10.2109C519.039 10.7214 519.633 10.9766 520.352 10.9766C520.862 10.9766 521.294 10.8724 521.648 10.6641C522.003 10.4557 522.312 10.1797 522.578 9.83594L523.461 10.5234C522.753 11.612 521.69 12.1562 520.273 12.1562ZM520.094 4.57812C519.51 4.57812 519.021 4.79167 518.625 5.21875C518.229 5.64062 517.984 6.23438 517.891 7H522.125V6.89062C522.083 6.15625 521.885 5.58854 521.531 5.1875C521.177 4.78125 520.698 4.57812 520.094 4.57812ZM528.641 10.9766C529.156 10.9766 529.607 10.8203 529.992 10.5078C530.378 10.1953 530.591 9.80469 530.633 9.33594H532C531.974 9.82031 531.807 10.2812 531.5 10.7188C531.193 11.1562 530.781 11.5052 530.266 11.7656C529.755 12.026 529.214 12.1562 528.641 12.1562C527.49 12.1562 526.573 11.7734 525.891 11.0078C525.214 10.237 524.875 9.1849 524.875 7.85156V7.60938C524.875 6.78646 525.026 6.05469 525.328 5.41406C525.63 4.77344 526.062 4.27604 526.625 3.92188C527.193 3.56771 527.862 3.39062 528.633 3.39062C529.581 3.39062 530.367 3.67448 530.992 4.24219C531.622 4.8099 531.958 5.54688 532 6.45312H530.633C530.591 5.90625 530.383 5.45833 530.008 5.10938C529.638 4.75521 529.18 4.57812 528.633 4.57812C527.898 4.57812 527.328 4.84375 526.922 5.375C526.521 5.90104 526.32 6.66406 526.32 7.66406V7.9375C526.32 8.91146 526.521 9.66146 526.922 10.1875C527.323 10.7135 527.896 10.9766 528.641 10.9766ZM536.258 8.39844H535.203V12H533.75V3.54688H535.203V7.125H536.148L538.992 3.54688H540.742L537.398 7.60938L541.023 12H539.188L536.258 8.39844ZM547.734 3.54688H549.18V12H547.734V5.83594L543.836 12H542.391V3.54688H543.836V9.71875L547.734 3.54688ZM556.969 3.54688H558.414V12H556.969V5.83594L553.07 12H551.625V3.54688H553.07V9.71875L556.969 3.54688ZM557.359 0.46875C557.359 1.09896 557.143 1.60677 556.711 1.99219C556.284 2.3724 555.721 2.5625 555.023 2.5625C554.326 2.5625 553.76 2.36979 553.328 1.98438C552.896 1.59896 552.68 1.09375 552.68 0.46875H553.859C553.859 0.833333 553.958 1.11979 554.156 1.32812C554.354 1.53125 554.643 1.63281 555.023 1.63281C555.388 1.63281 555.672 1.53125 555.875 1.32812C556.083 1.125 556.188 0.838542 556.188 0.46875H557.359ZM571.844 7.86719C571.844 9.15365 571.549 10.1901 570.961 10.9766C570.372 11.763 569.576 12.1562 568.57 12.1562C567.544 12.1562 566.737 11.8307 566.148 11.1797V15.25H564.703V3.54688H566.023L566.094 4.48438C566.682 3.75521 567.5 3.39062 568.547 3.39062C569.562 3.39062 570.365 3.77344 570.953 4.53906C571.547 5.30469 571.844 6.36979 571.844 7.73438V7.86719ZM570.398 7.70312C570.398 6.75 570.195 5.9974 569.789 5.44531C569.383 4.89323 568.826 4.61719 568.117 4.61719C567.242 4.61719 566.586 5.00521 566.148 5.78125V9.82031C566.581 10.5911 567.242 10.9766 568.133 10.9766C568.826 10.9766 569.375 10.7031 569.781 10.1562C570.193 9.60417 570.398 8.78646 570.398 7.70312ZM578.906 12C578.823 11.8333 578.755 11.5365 578.703 11.1094C578.031 11.8073 577.229 12.1562 576.297 12.1562C575.464 12.1562 574.779 11.9219 574.242 11.4531C573.711 10.9792 573.445 10.3802 573.445 9.65625C573.445 8.77604 573.779 8.09375 574.445 7.60938C575.117 7.11979 576.06 6.875 577.273 6.875H578.68V6.21094C578.68 5.70573 578.529 5.30469 578.227 5.00781C577.924 4.70573 577.479 4.55469 576.891 4.55469C576.375 4.55469 575.943 4.6849 575.594 4.94531C575.245 5.20573 575.07 5.52083 575.07 5.89062H573.617C573.617 5.46875 573.766 5.0625 574.062 4.67188C574.365 4.27604 574.771 3.96354 575.281 3.73438C575.797 3.50521 576.362 3.39062 576.977 3.39062C577.951 3.39062 578.714 3.63542 579.266 4.125C579.818 4.60938 580.104 5.27865 580.125 6.13281V10.0234C580.125 10.7995 580.224 11.4167 580.422 11.875V12H578.906ZM576.508 10.8984C576.961 10.8984 577.391 10.7812 577.797 10.5469C578.203 10.3125 578.497 10.0078 578.68 9.63281V7.89844H577.547C575.776 7.89844 574.891 8.41667 574.891 9.45312C574.891 9.90625 575.042 10.2604 575.344 10.5156C575.646 10.7708 576.034 10.8984 576.508 10.8984ZM585.781 10.9766C586.297 10.9766 586.747 10.8203 587.133 10.5078C587.518 10.1953 587.732 9.80469 587.773 9.33594H589.141C589.115 9.82031 588.948 10.2812 588.641 10.7188C588.333 11.1562 587.922 11.5052 587.406 11.7656C586.896 12.026 586.354 12.1562 585.781 12.1562C584.63 12.1562 583.714 11.7734 583.031 11.0078C582.354 10.237 582.016 9.1849 582.016 7.85156V7.60938C582.016 6.78646 582.167 6.05469 582.469 5.41406C582.771 4.77344 583.203 4.27604 583.766 3.92188C584.333 3.56771 585.003 3.39062 585.773 3.39062C586.721 3.39062 587.508 3.67448 588.133 4.24219C588.763 4.8099 589.099 5.54688 589.141 6.45312H587.773C587.732 5.90625 587.523 5.45833 587.148 5.10938C586.779 4.75521 586.32 4.57812 585.773 4.57812C585.039 4.57812 584.469 4.84375 584.062 5.375C583.661 5.90104 583.461 6.66406 583.461 7.66406V7.9375C583.461 8.91146 583.661 9.66146 584.062 10.1875C584.464 10.7135 585.036 10.9766 585.781 10.9766ZM597.148 12H595.695V8.9375C595.06 9.10417 594.409 9.1875 593.742 9.1875C592.685 9.1875 591.878 8.91667 591.32 8.375C590.768 7.83333 590.487 7.0625 590.477 6.0625V3.53906H591.922V6.10938C591.948 7.36979 592.555 8 593.742 8C594.409 8 595.06 7.91667 595.695 7.75V3.54688H597.148V12ZM602.977 12.1562C601.831 12.1562 600.898 11.7812 600.18 11.0312C599.461 10.276 599.102 9.26823 599.102 8.00781V7.74219C599.102 6.90365 599.26 6.15625 599.578 5.5C599.901 4.83854 600.349 4.32292 600.922 3.95312C601.5 3.57812 602.125 3.39062 602.797 3.39062C603.896 3.39062 604.75 3.7526 605.359 4.47656C605.969 5.20052 606.273 6.23698 606.273 7.58594V8.1875H600.547C600.568 9.02083 600.81 9.69531 601.273 10.2109C601.742 10.7214 602.336 10.9766 603.055 10.9766C603.565 10.9766 603.997 10.8724 604.352 10.6641C604.706 10.4557 605.016 10.1797 605.281 9.83594L606.164 10.5234C605.456 11.612 604.393 12.1562 602.977 12.1562ZM602.797 4.57812C602.214 4.57812 601.724 4.79167 601.328 5.21875C600.932 5.64062 600.688 6.23438 600.594 7H604.828V6.89062C604.786 6.15625 604.589 5.58854 604.234 5.1875C603.88 4.78125 603.401 4.57812 602.797 4.57812ZM614.141 4.71875H611.305V12H609.859V4.71875H607.078V3.54688H614.141V4.71875ZM7.00781 37H5.5625V29.7422H1.67188V37H0.21875V28.5469H7.00781V37ZM16.4688 32.8672C16.4688 34.1536 16.1745 35.1901 15.5859 35.9766C14.9974 36.763 14.2005 37.1562 13.1953 37.1562C12.1693 37.1562 11.362 36.8307 10.7734 36.1797V40.25H9.32812V28.5469H10.6484L10.7188 29.4844C11.3073 28.7552 12.125 28.3906 13.1719 28.3906C14.1875 28.3906 14.9896 28.7734 15.5781 29.5391C16.1719 30.3047 16.4688 31.3698 16.4688 32.7344V32.8672ZM15.0234 32.7031C15.0234 31.75 14.8203 30.9974 14.4141 30.4453C14.0078 29.8932 13.4505 29.6172 12.7422 29.6172C11.8672 29.6172 11.2109 30.0052 10.7734 30.7812V34.8203C11.2057 35.5911 11.8672 35.9766 12.7578 35.9766C13.4505 35.9766 14 35.7031 14.4062 35.1562C14.8177 34.6042 15.0234 33.7865 15.0234 32.7031ZM21.8203 37.1562C20.6745 37.1562 19.7422 36.7812 19.0234 36.0312C18.3047 35.276 17.9453 34.2682 17.9453 33.0078V32.7422C17.9453 31.9036 18.1042 31.1562 18.4219 30.5C18.7448 29.8385 19.1927 29.3229 19.7656 28.9531C20.3438 28.5781 20.9688 28.3906 21.6406 28.3906C22.7396 28.3906 23.5938 28.7526 24.2031 29.4766C24.8125 30.2005 25.1172 31.237 25.1172 32.5859V33.1875H19.3906C19.4115 34.0208 19.6536 34.6953 20.1172 35.2109C20.5859 35.7214 21.1797 35.9766 21.8984 35.9766C22.4089 35.9766 22.8411 35.8724 23.1953 35.6641C23.5495 35.4557 23.8594 35.1797 24.125 34.8359L25.0078 35.5234C24.2995 36.612 23.237 37.1562 21.8203 37.1562ZM21.6406 29.5781C21.0573 29.5781 20.5677 29.7917 20.1719 30.2188C19.776 30.6406 19.5312 31.2344 19.4375 32H23.6719V31.8906C23.6302 31.1562 23.4323 30.5885 23.0781 30.1875C22.724 29.7812 22.2448 29.5781 21.6406 29.5781ZM26.9297 37V28.5469H30.2266C31.3516 28.5469 32.2135 28.7448 32.8125 29.1406C33.4167 29.5312 33.7188 30.1068 33.7188 30.8672C33.7188 31.2578 33.6016 31.612 33.3672 31.9297C33.1328 32.2422 32.7865 32.4818 32.3281 32.6484C32.8385 32.7682 33.2474 33.0026 33.5547 33.3516C33.8672 33.7005 34.0234 34.1172 34.0234 34.6016C34.0234 35.3776 33.737 35.9714 33.1641 36.3828C32.5964 36.7943 31.7917 37 30.75 37H26.9297ZM28.375 33.2891V35.8359H30.7656C31.3698 35.8359 31.8203 35.724 32.1172 35.5C32.4193 35.276 32.5703 34.9609 32.5703 34.5547C32.5703 33.7109 31.9505 33.2891 30.7109 33.2891H28.375ZM28.375 32.1328H30.2422C31.5964 32.1328 32.2734 31.737 32.2734 30.9453C32.2734 30.1536 31.6328 29.7448 30.3516 29.7188H28.375V32.1328ZM37.5156 31.4609H39.7109C40.6693 31.4714 41.4271 31.7214 41.9844 32.2109C42.5417 32.7005 42.8203 33.3646 42.8203 34.2031C42.8203 35.0469 42.5339 35.724 41.9609 36.2344C41.388 36.7448 40.6172 37 39.6484 37H36.0703V28.5469H37.5156V31.4609ZM45.8359 37H44.3828V28.5469H45.8359V37ZM37.5156 32.6406V35.8203H39.6641C40.2057 35.8203 40.625 35.6823 40.9219 35.4062C41.2188 35.125 41.3672 34.7422 41.3672 34.2578C41.3672 33.7891 41.2214 33.4062 40.9297 33.1094C40.6432 32.8073 40.2396 32.651 39.7188 32.6406H37.5156ZM49.9375 28.5469V35.8203H53.0312V28.5469H54.4766V35.8203H57.5625V28.5469H59.0156V37H48.4844V28.5469H49.9375ZM64.8047 37.1562C63.6589 37.1562 62.7266 36.7812 62.0078 36.0312C61.2891 35.276 60.9297 34.2682 60.9297 33.0078V32.7422C60.9297 31.9036 61.0885 31.1562 61.4062 30.5C61.7292 29.8385 62.1771 29.3229 62.75 28.9531C63.3281 28.5781 63.9531 28.3906 64.625 28.3906C65.724 28.3906 66.5781 28.7526 67.1875 29.4766C67.7969 30.2005 68.1016 31.237 68.1016 32.5859V33.1875H62.375C62.3958 34.0208 62.638 34.6953 63.1016 35.2109C63.5703 35.7214 64.1641 35.9766 64.8828 35.9766C65.3932 35.9766 65.8255 35.8724 66.1797 35.6641C66.5339 35.4557 66.8438 35.1797 67.1094 34.8359L67.9922 35.5234C67.2839 36.612 66.2214 37.1562 64.8047 37.1562ZM64.625 29.5781C64.0417 29.5781 63.5521 29.7917 63.1562 30.2188C62.7604 30.6406 62.5156 31.2344 62.4219 32H66.6562V31.8906C66.6146 31.1562 66.4167 30.5885 66.0625 30.1875C65.7083 29.7812 65.2292 29.5781 64.625 29.5781ZM76.3828 33.3984H75.3281V37H73.875V28.5469H75.3281V32.125H76.2734L79.1172 28.5469H80.8672L77.5234 32.6094L81.1484 37H79.3125L76.3828 33.3984ZM89.5312 32.8672C89.5312 34.1536 89.237 35.1901 88.6484 35.9766C88.0599 36.763 87.263 37.1562 86.2578 37.1562C85.2318 37.1562 84.4245 36.8307 83.8359 36.1797V40.25H82.3906V28.5469H83.7109L83.7812 29.4844C84.3698 28.7552 85.1875 28.3906 86.2344 28.3906C87.25 28.3906 88.0521 28.7734 88.6406 29.5391C89.2344 30.3047 89.5312 31.3698 89.5312 32.7344V32.8672ZM88.0859 32.7031C88.0859 31.75 87.8828 30.9974 87.4766 30.4453C87.0703 29.8932 86.513 29.6172 85.8047 29.6172C84.9297 29.6172 84.2734 30.0052 83.8359 30.7812V34.8203C84.2682 35.5911 84.9297 35.9766 85.8203 35.9766C86.513 35.9766 87.0625 35.7031 87.4688 35.1562C87.8802 34.6042 88.0859 33.7865 88.0859 32.7031ZM94.8828 37.1562C93.737 37.1562 92.8047 36.7812 92.0859 36.0312C91.3672 35.276 91.0078 34.2682 91.0078 33.0078V32.7422C91.0078 31.9036 91.1667 31.1562 91.4844 30.5C91.8073 29.8385 92.2552 29.3229 92.8281 28.9531C93.4062 28.5781 94.0312 28.3906 94.7031 28.3906C95.8021 28.3906 96.6562 28.7526 97.2656 29.4766C97.875 30.2005 98.1797 31.237 98.1797 32.5859V33.1875H92.4531C92.474 34.0208 92.7161 34.6953 93.1797 35.2109C93.6484 35.7214 94.2422 35.9766 94.9609 35.9766C95.4714 35.9766 95.9036 35.8724 96.2578 35.6641C96.612 35.4557 96.9219 35.1797 97.1875 34.8359L98.0703 35.5234C97.362 36.612 96.2995 37.1562 94.8828 37.1562ZM94.7031 29.5781C94.1198 29.5781 93.6302 29.7917 93.2344 30.2188C92.8385 30.6406 92.5938 31.2344 92.5 32H96.7344V31.8906C96.6927 31.1562 96.4948 30.5885 96.1406 30.1875C95.7865 29.7812 95.3073 29.5781 94.7031 29.5781ZM105.078 37C104.995 36.8333 104.927 36.5365 104.875 36.1094C104.203 36.8073 103.401 37.1562 102.469 37.1562C101.635 37.1562 100.951 36.9219 100.414 36.4531C99.8828 35.9792 99.6172 35.3802 99.6172 34.6562C99.6172 33.776 99.9505 33.0938 100.617 32.6094C101.289 32.1198 102.232 31.875 103.445 31.875H104.852V31.2109C104.852 30.7057 104.701 30.3047 104.398 30.0078C104.096 29.7057 103.651 29.5547 103.062 29.5547C102.547 29.5547 102.115 29.6849 101.766 29.9453C101.417 30.2057 101.242 30.5208 101.242 30.8906H99.7891C99.7891 30.4688 99.9375 30.0625 100.234 29.6719C100.536 29.276 100.943 28.9635 101.453 28.7344C101.969 28.5052 102.534 28.3906 103.148 28.3906C104.122 28.3906 104.885 28.6354 105.438 29.125C105.99 29.6094 106.276 30.2786 106.297 31.1328V35.0234C106.297 35.7995 106.396 36.4167 106.594 36.875V37H105.078ZM102.68 35.8984C103.133 35.8984 103.562 35.7812 103.969 35.5469C104.375 35.3125 104.669 35.0078 104.852 34.6328V32.8984H103.719C101.948 32.8984 101.062 33.4167 101.062 34.4531C101.062 34.9062 101.214 35.2604 101.516 35.5156C101.818 35.7708 102.206 35.8984 102.68 35.8984ZM114.719 29.7188H111.883V37H110.438V29.7188H107.656V28.5469H114.719V29.7188ZM121.594 28.5469H123.039V37H121.594V30.8359L117.695 37H116.25V28.5469H117.695V34.7188L121.594 28.5469ZM125.492 37V28.5469H128.789C129.914 28.5469 130.776 28.7448 131.375 29.1406C131.979 29.5312 132.281 30.1068 132.281 30.8672C132.281 31.2578 132.164 31.612 131.93 31.9297C131.695 32.2422 131.349 32.4818 130.891 32.6484C131.401 32.7682 131.81 33.0026 132.117 33.3516C132.43 33.7005 132.586 34.1172 132.586 34.6016C132.586 35.3776 132.299 35.9714 131.727 36.3828C131.159 36.7943 130.354 37 129.312 37H125.492ZM126.938 33.2891V35.8359H129.328C129.932 35.8359 130.383 35.724 130.68 35.5C130.982 35.276 131.133 34.9609 131.133 34.5547C131.133 33.7109 130.513 33.2891 129.273 33.2891H126.938ZM126.938 32.1328H128.805C130.159 32.1328 130.836 31.737 130.836 30.9453C130.836 30.1536 130.195 29.7448 128.914 29.7188H126.938V32.1328ZM139.719 37C139.635 36.8333 139.568 36.5365 139.516 36.1094C138.844 36.8073 138.042 37.1562 137.109 37.1562C136.276 37.1562 135.591 36.9219 135.055 36.4531C134.523 35.9792 134.258 35.3802 134.258 34.6562C134.258 33.776 134.591 33.0938 135.258 32.6094C135.93 32.1198 136.872 31.875 138.086 31.875H139.492V31.2109C139.492 30.7057 139.341 30.3047 139.039 30.0078C138.737 29.7057 138.292 29.5547 137.703 29.5547C137.188 29.5547 136.755 29.6849 136.406 29.9453C136.057 30.2057 135.883 30.5208 135.883 30.8906H134.43C134.43 30.4688 134.578 30.0625 134.875 29.6719C135.177 29.276 135.583 28.9635 136.094 28.7344C136.609 28.5052 137.174 28.3906 137.789 28.3906C138.763 28.3906 139.526 28.6354 140.078 29.125C140.63 29.6094 140.917 30.2786 140.938 31.1328V35.0234C140.938 35.7995 141.036 36.4167 141.234 36.875V37H139.719ZM137.32 35.8984C137.773 35.8984 138.203 35.7812 138.609 35.5469C139.016 35.3125 139.31 35.0078 139.492 34.6328V32.8984H138.359C136.589 32.8984 135.703 33.4167 135.703 34.4531C135.703 34.9062 135.854 35.2604 136.156 35.5156C136.458 35.7708 136.846 35.8984 137.32 35.8984ZM143.234 36.2422C143.234 35.9922 143.307 35.7839 143.453 35.6172C143.604 35.4505 143.828 35.3672 144.125 35.3672C144.422 35.3672 144.646 35.4505 144.797 35.6172C144.953 35.7839 145.031 35.9922 145.031 36.2422C145.031 36.4818 144.953 36.6823 144.797 36.8438C144.646 37.0052 144.422 37.0859 144.125 37.0859C143.828 37.0859 143.604 37.0052 143.453 36.8438C143.307 36.6823 143.234 36.4818 143.234 36.2422ZM153.117 32.5469V37H151.617V25.625H155.812C157.057 25.625 158.031 25.9427 158.734 26.5781C159.443 27.2135 159.797 28.0547 159.797 29.1016C159.797 30.2057 159.451 31.0573 158.758 31.6562C158.07 32.25 157.083 32.5469 155.797 32.5469H153.117ZM153.117 31.3203H155.812C156.615 31.3203 157.229 31.1328 157.656 30.7578C158.083 30.3776 158.297 29.8307 158.297 29.1172C158.297 28.4401 158.083 27.8984 157.656 27.4922C157.229 27.0859 156.643 26.875 155.898 26.8594H153.117V31.3203ZM166.609 37C166.526 36.8333 166.458 36.5365 166.406 36.1094C165.734 36.8073 164.932 37.1562 164 37.1562C163.167 37.1562 162.482 36.9219 161.945 36.4531C161.414 35.9792 161.148 35.3802 161.148 34.6562C161.148 33.776 161.482 33.0938 162.148 32.6094C162.82 32.1198 163.763 31.875 164.977 31.875H166.383V31.2109C166.383 30.7057 166.232 30.3047 165.93 30.0078C165.628 29.7057 165.182 29.5547 164.594 29.5547C164.078 29.5547 163.646 29.6849 163.297 29.9453C162.948 30.2057 162.773 30.5208 162.773 30.8906H161.32C161.32 30.4688 161.469 30.0625 161.766 29.6719C162.068 29.276 162.474 28.9635 162.984 28.7344C163.5 28.5052 164.065 28.3906 164.68 28.3906C165.654 28.3906 166.417 28.6354 166.969 29.125C167.521 29.6094 167.807 30.2786 167.828 31.1328V35.0234C167.828 35.7995 167.927 36.4167 168.125 36.875V37H166.609ZM164.211 35.8984C164.664 35.8984 165.094 35.7812 165.5 35.5469C165.906 35.3125 166.201 35.0078 166.383 34.6328V32.8984H165.25C163.479 32.8984 162.594 33.4167 162.594 34.4531C162.594 34.9062 162.745 35.2604 163.047 35.5156C163.349 35.7708 163.737 35.8984 164.211 35.8984ZM173.805 29.0312C174.867 29.0312 175.716 29.388 176.352 30.1016C176.992 30.8099 177.312 31.7448 177.312 32.9062V33.0391C177.312 33.8359 177.159 34.5495 176.852 35.1797C176.544 35.8047 176.102 36.2917 175.523 36.6406C174.951 36.9844 174.289 37.1562 173.539 37.1562C172.404 37.1562 171.49 36.7786 170.797 36.0234C170.104 35.263 169.758 34.2448 169.758 32.9688V32.2656C169.758 30.4896 170.086 29.0781 170.742 28.0312C171.404 26.9844 172.378 26.3464 173.664 26.1172C174.393 25.987 174.885 25.8281 175.141 25.6406C175.396 25.4531 175.523 25.1953 175.523 24.8672H176.711C176.711 25.5182 176.562 26.026 176.266 26.3906C175.974 26.7552 175.505 27.013 174.859 27.1641L173.781 27.4062C172.922 27.6094 172.276 27.9531 171.844 28.4375C171.417 28.9167 171.138 29.5573 171.008 30.3594C171.773 29.474 172.706 29.0312 173.805 29.0312ZM173.523 30.2188C172.815 30.2188 172.253 30.4583 171.836 30.9375C171.419 31.4115 171.211 32.0703 171.211 32.9141V33.0391C171.211 33.9453 171.419 34.6641 171.836 35.1953C172.258 35.7214 172.826 35.9844 173.539 35.9844C174.258 35.9844 174.826 35.7188 175.242 35.1875C175.659 34.6562 175.867 33.8802 175.867 32.8594C175.867 32.0625 175.656 31.4245 175.234 30.9453C174.818 30.4609 174.247 30.2188 173.523 30.2188ZM178.555 32.6953C178.555 31.8672 178.716 31.1224 179.039 30.4609C179.367 29.7995 179.82 29.2891 180.398 28.9297C180.982 28.5703 181.646 28.3906 182.391 28.3906C183.542 28.3906 184.471 28.7891 185.18 29.5859C185.893 30.3828 186.25 31.4427 186.25 32.7656V32.8672C186.25 33.6901 186.091 34.4297 185.773 35.0859C185.461 35.737 185.01 36.2448 184.422 36.6094C183.839 36.974 183.167 37.1562 182.406 37.1562C181.26 37.1562 180.331 36.7578 179.617 35.9609C178.909 35.1641 178.555 34.1094 178.555 32.7969V32.6953ZM180.008 32.8672C180.008 33.8047 180.224 34.5573 180.656 35.125C181.094 35.6927 181.677 35.9766 182.406 35.9766C183.141 35.9766 183.724 35.6901 184.156 35.1172C184.589 34.5391 184.805 33.7318 184.805 32.6953C184.805 31.7682 184.583 31.0182 184.141 30.4453C183.703 29.8672 183.12 29.5781 182.391 29.5781C181.677 29.5781 181.102 29.862 180.664 30.4297C180.227 30.9974 180.008 31.8099 180.008 32.8672ZM194.172 29.7188H191.336V37H189.891V29.7188H187.109V28.5469H194.172V29.7188ZM200.672 37C200.589 36.8333 200.521 36.5365 200.469 36.1094C199.797 36.8073 198.995 37.1562 198.062 37.1562C197.229 37.1562 196.544 36.9219 196.008 36.4531C195.477 35.9792 195.211 35.3802 195.211 34.6562C195.211 33.776 195.544 33.0938 196.211 32.6094C196.883 32.1198 197.826 31.875 199.039 31.875H200.445V31.2109C200.445 30.7057 200.294 30.3047 199.992 30.0078C199.69 29.7057 199.245 29.5547 198.656 29.5547C198.141 29.5547 197.708 29.6849 197.359 29.9453C197.01 30.2057 196.836 30.5208 196.836 30.8906H195.383C195.383 30.4688 195.531 30.0625 195.828 29.6719C196.13 29.276 196.536 28.9635 197.047 28.7344C197.562 28.5052 198.128 28.3906 198.742 28.3906C199.716 28.3906 200.479 28.6354 201.031 29.125C201.583 29.6094 201.87 30.2786 201.891 31.1328V35.0234C201.891 35.7995 201.99 36.4167 202.188 36.875V37H200.672ZM198.273 35.8984C198.727 35.8984 199.156 35.7812 199.562 35.5469C199.969 35.3125 200.263 35.0078 200.445 34.6328V32.8984H199.312C197.542 32.8984 196.656 33.4167 196.656 34.4531C196.656 34.9062 196.807 35.2604 197.109 35.5156C197.411 35.7708 197.799 35.8984 198.273 35.8984ZM207.664 37.1562C206.518 37.1562 205.586 36.7812 204.867 36.0312C204.148 35.276 203.789 34.2682 203.789 33.0078V32.7422C203.789 31.9036 203.948 31.1562 204.266 30.5C204.589 29.8385 205.036 29.3229 205.609 28.9531C206.188 28.5781 206.812 28.3906 207.484 28.3906C208.583 28.3906 209.438 28.7526 210.047 29.4766C210.656 30.2005 210.961 31.237 210.961 32.5859V33.1875H205.234C205.255 34.0208 205.497 34.6953 205.961 35.2109C206.43 35.7214 207.023 35.9766 207.742 35.9766C208.253 35.9766 208.685 35.8724 209.039 35.6641C209.393 35.4557 209.703 35.1797 209.969 34.8359L210.852 35.5234C210.143 36.612 209.081 37.1562 207.664 37.1562ZM207.484 29.5781C206.901 29.5781 206.411 29.7917 206.016 30.2188C205.62 30.6406 205.375 31.2344 205.281 32H209.516V31.8906C209.474 31.1562 209.276 30.5885 208.922 30.1875C208.568 29.7812 208.089 29.5781 207.484 29.5781ZM217.508 35.0859L220.383 28.5469H222.188V37H220.742V30.8516L218.008 37H217.008L214.219 30.7188V37H212.773V28.5469H214.648L217.508 35.0859ZM235.391 37H233.945V33.3906H230.062V37H228.609V28.5469H230.062V32.2109H233.945V28.5469H235.391V37ZM241.227 37.1562C240.081 37.1562 239.148 36.7812 238.43 36.0312C237.711 35.276 237.352 34.2682 237.352 33.0078V32.7422C237.352 31.9036 237.51 31.1562 237.828 30.5C238.151 29.8385 238.599 29.3229 239.172 28.9531C239.75 28.5781 240.375 28.3906 241.047 28.3906C242.146 28.3906 243 28.7526 243.609 29.4766C244.219 30.2005 244.523 31.237 244.523 32.5859V33.1875H238.797C238.818 34.0208 239.06 34.6953 239.523 35.2109C239.992 35.7214 240.586 35.9766 241.305 35.9766C241.815 35.9766 242.247 35.8724 242.602 35.6641C242.956 35.4557 243.266 35.1797 243.531 34.8359L244.414 35.5234C243.706 36.612 242.643 37.1562 241.227 37.1562ZM241.047 29.5781C240.464 29.5781 239.974 29.7917 239.578 30.2188C239.182 30.6406 238.938 31.2344 238.844 32H243.078V31.8906C243.036 31.1562 242.839 30.5885 242.484 30.1875C242.13 29.7812 241.651 29.5781 241.047 29.5781ZM257.086 37H255.641V29.7422H251.75V37H250.297V28.5469H257.086V37ZM259.023 32.6953C259.023 31.8672 259.185 31.1224 259.508 30.4609C259.836 29.7995 260.289 29.2891 260.867 28.9297C261.451 28.5703 262.115 28.3906 262.859 28.3906C264.01 28.3906 264.94 28.7891 265.648 29.5859C266.362 30.3828 266.719 31.4427 266.719 32.7656V32.8672C266.719 33.6901 266.56 34.4297 266.242 35.0859C265.93 35.737 265.479 36.2448 264.891 36.6094C264.307 36.974 263.635 37.1562 262.875 37.1562C261.729 37.1562 260.799 36.7578 260.086 35.9609C259.378 35.1641 259.023 34.1094 259.023 32.7969V32.6953ZM260.477 32.8672C260.477 33.8047 260.693 34.5573 261.125 35.125C261.562 35.6927 262.146 35.9766 262.875 35.9766C263.609 35.9766 264.193 35.6901 264.625 35.1172C265.057 34.5391 265.273 33.7318 265.273 32.6953C265.273 31.7682 265.052 31.0182 264.609 30.4453C264.172 29.8672 263.589 29.5781 262.859 29.5781C262.146 29.5781 261.57 29.862 261.133 30.4297C260.695 30.9974 260.477 31.8099 260.477 32.8672ZM271.164 33.3984H270.109V37H268.656V28.5469H270.109V32.125H271.055L273.898 28.5469H275.648L272.305 32.6094L275.93 37H274.094L271.164 33.3984ZM284.102 28.5469V37H282.648V29.7422H279.773L279.602 32.9062C279.508 34.3594 279.263 35.3984 278.867 36.0234C278.477 36.6484 277.854 36.974 277 37H276.422V35.7266L276.836 35.6953C277.305 35.6432 277.641 35.3724 277.844 34.8828C278.047 34.3932 278.177 33.487 278.234 32.1641L278.391 28.5469H284.102ZM291.641 37C291.557 36.8333 291.49 36.5365 291.438 36.1094C290.766 36.8073 289.964 37.1562 289.031 37.1562C288.198 37.1562 287.513 36.9219 286.977 36.4531C286.445 35.9792 286.18 35.3802 286.18 34.6562C286.18 33.776 286.513 33.0938 287.18 32.6094C287.852 32.1198 288.794 31.875 290.008 31.875H291.414V31.2109C291.414 30.7057 291.263 30.3047 290.961 30.0078C290.659 29.7057 290.214 29.5547 289.625 29.5547C289.109 29.5547 288.677 29.6849 288.328 29.9453C287.979 30.2057 287.805 30.5208 287.805 30.8906H286.352C286.352 30.4688 286.5 30.0625 286.797 29.6719C287.099 29.276 287.505 28.9635 288.016 28.7344C288.531 28.5052 289.096 28.3906 289.711 28.3906C290.685 28.3906 291.448 28.6354 292 29.125C292.552 29.6094 292.839 30.2786 292.859 31.1328V35.0234C292.859 35.7995 292.958 36.4167 293.156 36.875V37H291.641ZM289.242 35.8984C289.695 35.8984 290.125 35.7812 290.531 35.5469C290.938 35.3125 291.232 35.0078 291.414 34.6328V32.8984H290.281C288.51 32.8984 287.625 33.4167 287.625 34.4531C287.625 34.9062 287.776 35.2604 288.078 35.5156C288.38 35.7708 288.768 35.8984 289.242 35.8984ZM295.055 35.8203L295.555 35.2031C296.117 34.474 296.438 33.3802 296.516 31.9219L296.648 28.5469H302.094V35.8203H303.18V39.4844H301.734V37H295.836V39.4844H294.391L294.398 35.8203H295.055ZM296.766 35.8203H300.648V29.8828H298.047L297.961 31.8984C297.872 33.5807 297.474 34.888 296.766 35.8203ZM310 37C309.917 36.8333 309.849 36.5365 309.797 36.1094C309.125 36.8073 308.323 37.1562 307.391 37.1562C306.557 37.1562 305.872 36.9219 305.336 36.4531C304.805 35.9792 304.539 35.3802 304.539 34.6562C304.539 33.776 304.872 33.0938 305.539 32.6094C306.211 32.1198 307.154 31.875 308.367 31.875H309.773V31.2109C309.773 30.7057 309.622 30.3047 309.32 30.0078C309.018 29.7057 308.573 29.5547 307.984 29.5547C307.469 29.5547 307.036 29.6849 306.688 29.9453C306.339 30.2057 306.164 30.5208 306.164 30.8906H304.711C304.711 30.4688 304.859 30.0625 305.156 29.6719C305.458 29.276 305.865 28.9635 306.375 28.7344C306.891 28.5052 307.456 28.3906 308.07 28.3906C309.044 28.3906 309.807 28.6354 310.359 29.125C310.911 29.6094 311.198 30.2786 311.219 31.1328V35.0234C311.219 35.7995 311.318 36.4167 311.516 36.875V37H310ZM307.602 35.8984C308.055 35.8984 308.484 35.7812 308.891 35.5469C309.297 35.3125 309.591 35.0078 309.773 34.6328V32.8984H308.641C306.87 32.8984 305.984 33.4167 305.984 34.4531C305.984 34.9062 306.135 35.2604 306.438 35.5156C306.74 35.7708 307.128 35.8984 307.602 35.8984ZM319.945 28.5469V37H318.492V33.7109H316.312L314.32 37H312.758L314.883 33.4922C314.341 33.2943 313.924 32.9896 313.633 32.5781C313.346 32.1615 313.203 31.6771 313.203 31.125C313.203 30.3542 313.492 29.7344 314.07 29.2656C314.648 28.7917 315.422 28.5521 316.391 28.5469H319.945ZM314.656 31.1406C314.656 31.5521 314.797 31.8854 315.078 32.1406C315.359 32.3906 315.732 32.5182 316.195 32.5234H318.492V29.7188H316.414C315.878 29.7188 315.451 29.8516 315.133 30.1172C314.815 30.3776 314.656 30.7188 314.656 31.1406ZM333.375 32.8672C333.375 34.1536 333.081 35.1901 332.492 35.9766C331.904 36.763 331.107 37.1562 330.102 37.1562C329.076 37.1562 328.268 36.8307 327.68 36.1797V40.25H326.234V28.5469H327.555L327.625 29.4844C328.214 28.7552 329.031 28.3906 330.078 28.3906C331.094 28.3906 331.896 28.7734 332.484 29.5391C333.078 30.3047 333.375 31.3698 333.375 32.7344V32.8672ZM331.93 32.7031C331.93 31.75 331.727 30.9974 331.32 30.4453C330.914 29.8932 330.357 29.6172 329.648 29.6172C328.773 29.6172 328.117 30.0052 327.68 30.7812V34.8203C328.112 35.5911 328.773 35.9766 329.664 35.9766C330.357 35.9766 330.906 35.7031 331.312 35.1562C331.724 34.6042 331.93 33.7865 331.93 32.7031ZM337.891 34.8828L339.859 28.5469H341.406L338.008 38.3047C337.482 39.7109 336.646 40.4141 335.5 40.4141L335.227 40.3906L334.688 40.2891V39.1172L335.078 39.1484C335.568 39.1484 335.948 39.0495 336.219 38.8516C336.495 38.6536 336.721 38.2917 336.898 37.7656L337.219 36.9062L334.203 28.5469H335.781L337.891 34.8828ZM345.336 33.3984H344.281V37H342.828V28.5469H344.281V32.125H345.227L348.07 28.5469H349.82L346.477 32.6094L350.102 37H348.266L345.336 33.3984ZM351.297 39.2656L350.477 38.7031C350.966 38.0208 351.221 37.3177 351.242 36.5938V35.2891H352.656V36.4219C352.656 36.9479 352.526 37.474 352.266 38C352.01 38.526 351.688 38.9479 351.297 39.2656ZM361.086 33.3984H360.031V37H358.578V28.5469H360.031V32.125H360.977L363.82 28.5469H365.57L362.227 32.6094L365.852 37H364.016L361.086 33.3984ZM372.312 37C372.229 36.8333 372.161 36.5365 372.109 36.1094C371.438 36.8073 370.635 37.1562 369.703 37.1562C368.87 37.1562 368.185 36.9219 367.648 36.4531C367.117 35.9792 366.852 35.3802 366.852 34.6562C366.852 33.776 367.185 33.0938 367.852 32.6094C368.523 32.1198 369.466 31.875 370.68 31.875H372.086V31.2109C372.086 30.7057 371.935 30.3047 371.633 30.0078C371.331 29.7057 370.885 29.5547 370.297 29.5547C369.781 29.5547 369.349 29.6849 369 29.9453C368.651 30.2057 368.477 30.5208 368.477 30.8906H367.023C367.023 30.4688 367.172 30.0625 367.469 29.6719C367.771 29.276 368.177 28.9635 368.688 28.7344C369.203 28.5052 369.768 28.3906 370.383 28.3906C371.357 28.3906 372.12 28.6354 372.672 29.125C373.224 29.6094 373.51 30.2786 373.531 31.1328V35.0234C373.531 35.7995 373.63 36.4167 373.828 36.875V37H372.312ZM369.914 35.8984C370.367 35.8984 370.797 35.7812 371.203 35.5469C371.609 35.3125 371.904 35.0078 372.086 34.6328V32.8984H370.953C369.182 32.8984 368.297 33.4167 368.297 34.4531C368.297 34.9062 368.448 35.2604 368.75 35.5156C369.052 35.7708 369.44 35.8984 369.914 35.8984ZM378.43 33.3984H377.375V37H375.922V28.5469H377.375V32.125H378.32L381.164 28.5469H382.914L379.57 32.6094L383.195 37H381.359L378.43 33.3984ZM395.547 32.8672C395.547 34.1536 395.253 35.1901 394.664 35.9766C394.076 36.763 393.279 37.1562 392.273 37.1562C391.247 37.1562 390.44 36.8307 389.852 36.1797V40.25H388.406V28.5469H389.727L389.797 29.4844C390.385 28.7552 391.203 28.3906 392.25 28.3906C393.266 28.3906 394.068 28.7734 394.656 29.5391C395.25 30.3047 395.547 31.3698 395.547 32.7344V32.8672ZM394.102 32.7031C394.102 31.75 393.898 30.9974 393.492 30.4453C393.086 29.8932 392.529 29.6172 391.82 29.6172C390.945 29.6172 390.289 30.0052 389.852 30.7812V34.8203C390.284 35.5911 390.945 35.9766 391.836 35.9766C392.529 35.9766 393.078 35.7031 393.484 35.1562C393.896 34.6042 394.102 33.7865 394.102 32.7031ZM397.008 32.6953C397.008 31.8672 397.169 31.1224 397.492 30.4609C397.82 29.7995 398.273 29.2891 398.852 28.9297C399.435 28.5703 400.099 28.3906 400.844 28.3906C401.995 28.3906 402.924 28.7891 403.633 29.5859C404.346 30.3828 404.703 31.4427 404.703 32.7656V32.8672C404.703 33.6901 404.544 34.4297 404.227 35.0859C403.914 35.737 403.464 36.2448 402.875 36.6094C402.292 36.974 401.62 37.1562 400.859 37.1562C399.714 37.1562 398.784 36.7578 398.07 35.9609C397.362 35.1641 397.008 34.1094 397.008 32.7969V32.6953ZM398.461 32.8672C398.461 33.8047 398.677 34.5573 399.109 35.125C399.547 35.6927 400.13 35.9766 400.859 35.9766C401.594 35.9766 402.177 35.6901 402.609 35.1172C403.042 34.5391 403.258 33.7318 403.258 32.6953C403.258 31.7682 403.036 31.0182 402.594 30.4453C402.156 29.8672 401.573 29.5781 400.844 29.5781C400.13 29.5781 399.555 29.862 399.117 30.4297C398.68 30.9974 398.461 31.8099 398.461 32.8672ZM410.227 29.0312C411.289 29.0312 412.138 29.388 412.773 30.1016C413.414 30.8099 413.734 31.7448 413.734 32.9062V33.0391C413.734 33.8359 413.581 34.5495 413.273 35.1797C412.966 35.8047 412.523 36.2917 411.945 36.6406C411.372 36.9844 410.711 37.1562 409.961 37.1562C408.826 37.1562 407.911 36.7786 407.219 36.0234C406.526 35.263 406.18 34.2448 406.18 32.9688V32.2656C406.18 30.4896 406.508 29.0781 407.164 28.0312C407.826 26.9844 408.799 26.3464 410.086 26.1172C410.815 25.987 411.307 25.8281 411.562 25.6406C411.818 25.4531 411.945 25.1953 411.945 24.8672H413.133C413.133 25.5182 412.984 26.026 412.688 26.3906C412.396 26.7552 411.927 27.013 411.281 27.1641L410.203 27.4062C409.344 27.6094 408.698 27.9531 408.266 28.4375C407.839 28.9167 407.56 29.5573 407.43 30.3594C408.195 29.474 409.128 29.0312 410.227 29.0312ZM409.945 30.2188C409.237 30.2188 408.674 30.4583 408.258 30.9375C407.841 31.4115 407.633 32.0703 407.633 32.9141V33.0391C407.633 33.9453 407.841 34.6641 408.258 35.1953C408.68 35.7214 409.247 35.9844 409.961 35.9844C410.68 35.9844 411.247 35.7188 411.664 35.1875C412.081 34.6562 412.289 33.8802 412.289 32.8594C412.289 32.0625 412.078 31.4245 411.656 30.9453C411.24 30.4609 410.669 30.2188 409.945 30.2188ZM414.977 32.6953C414.977 31.8672 415.138 31.1224 415.461 30.4609C415.789 29.7995 416.242 29.2891 416.82 28.9297C417.404 28.5703 418.068 28.3906 418.812 28.3906C419.964 28.3906 420.893 28.7891 421.602 29.5859C422.315 30.3828 422.672 31.4427 422.672 32.7656V32.8672C422.672 33.6901 422.513 34.4297 422.195 35.0859C421.883 35.737 421.432 36.2448 420.844 36.6094C420.26 36.974 419.589 37.1562 418.828 37.1562C417.682 37.1562 416.753 36.7578 416.039 35.9609C415.331 35.1641 414.977 34.1094 414.977 32.7969V32.6953ZM416.43 32.8672C416.43 33.8047 416.646 34.5573 417.078 35.125C417.516 35.6927 418.099 35.9766 418.828 35.9766C419.562 35.9766 420.146 35.6901 420.578 35.1172C421.01 34.5391 421.227 33.7318 421.227 32.6953C421.227 31.7682 421.005 31.0182 420.562 30.4453C420.125 29.8672 419.542 29.5781 418.812 29.5781C418.099 29.5781 417.523 29.862 417.086 30.4297C416.648 30.9974 416.43 31.8099 416.43 32.8672ZM430.594 29.7188H427.758V37H426.312V29.7188H423.531V28.5469H430.594V29.7188ZM433.578 31.4609H435.773C436.732 31.4714 437.49 31.7214 438.047 32.2109C438.604 32.7005 438.883 33.3646 438.883 34.2031C438.883 35.0469 438.596 35.724 438.023 36.2344C437.451 36.7448 436.68 37 435.711 37H432.133V28.5469H433.578V31.4609ZM441.898 37H440.445V28.5469H441.898V37ZM433.578 32.6406V35.8203H435.727C436.268 35.8203 436.688 35.6823 436.984 35.4062C437.281 35.125 437.43 34.7422 437.43 34.2578C437.43 33.7891 437.284 33.4062 436.992 33.1094C436.706 32.8073 436.302 32.651 435.781 32.6406H433.578ZM444.453 36.2422C444.453 35.9922 444.526 35.7839 444.672 35.6172C444.823 35.4505 445.047 35.3672 445.344 35.3672C445.641 35.3672 445.865 35.4505 446.016 35.6172C446.172 35.7839 446.25 35.9922 446.25 36.2422C446.25 36.4818 446.172 36.6823 446.016 36.8438C445.865 37.0052 445.641 37.0859 445.344 37.0859C445.047 37.0859 444.823 37.0052 444.672 36.8438C444.526 36.6823 444.453 36.4818 444.453 36.2422Z" fill="#283136"/>
</svg>
