<svg width="176" height="35" viewBox="0 0 176 35" fill="none" xmlns="http://www.w3.org/2000/svg">
<path d="M7.57031 0.625H9.07031V12H7.57031V3.23438L1.96875 12H0.460938V0.625H1.96875V9.39062L7.57031 0.625ZM18.4844 12H17.0391V8.39062H13.1562V12H11.7031V3.54688H13.1562V7.21094H17.0391V3.54688H18.4844V12ZM20.5 7.92969C20.5 6.51823 20.7734 5.40885 21.3203 4.60156C21.8672 3.79427 22.6172 3.39062 23.5703 3.39062C24.013 3.39062 24.401 3.46615 24.7344 3.61719V0H26.1797V3.66406C26.5443 3.48177 26.9714 3.39062 27.4609 3.39062C28.4193 3.39062 29.1719 3.79427 29.7188 4.60156C30.2656 5.40885 30.5391 6.57292 30.5391 8.09375C30.5391 9.33854 30.2656 10.3281 29.7188 11.0625C29.1771 11.7969 28.4297 12.1641 27.4766 12.1641C26.9714 12.1641 26.5391 12.0807 26.1797 11.9141V15.25H24.7344V11.9375C24.3906 12.0885 23.9974 12.1641 23.5547 12.1641C22.6068 12.1641 21.8594 11.7969 21.3125 11.0625C20.7708 10.3281 20.5 9.32292 20.5 8.04688V7.92969ZM29.0938 7.92969C29.0938 6.86719 28.9115 6.04427 28.5469 5.46094C28.1823 4.8724 27.6797 4.57812 27.0391 4.57812C26.7109 4.57812 26.4245 4.63021 26.1797 4.73438V10.8516C26.4141 10.9401 26.7057 10.9844 27.0547 10.9844C27.7005 10.9844 28.2005 10.7344 28.5547 10.2344C28.9141 9.73438 29.0938 8.96615 29.0938 7.92969ZM21.9453 8.09375C21.9453 9.04167 22.1146 9.76042 22.4531 10.25C22.7917 10.7396 23.2786 10.9844 23.9141 10.9844C24.2161 10.9844 24.4896 10.9375 24.7344 10.8438V4.71094C24.5156 4.6224 24.2474 4.57812 23.9297 4.57812C23.2943 4.57812 22.8047 4.86198 22.4609 5.42969C22.1172 5.9974 21.9453 6.88542 21.9453 8.09375ZM32.0391 7.69531C32.0391 6.86719 32.2005 6.1224 32.5234 5.46094C32.8516 4.79948 33.3047 4.28906 33.8828 3.92969C34.4661 3.57031 35.1302 3.39062 35.875 3.39062C37.026 3.39062 37.9557 3.78906 38.6641 4.58594C39.3776 5.38281 39.7344 6.44271 39.7344 7.76562V7.86719C39.7344 8.6901 39.5755 9.42969 39.2578 10.0859C38.9453 10.737 38.4948 11.2448 37.9062 11.6094C37.3229 11.974 36.651 12.1562 35.8906 12.1562C34.7448 12.1562 33.8151 11.7578 33.1016 10.9609C32.3932 10.1641 32.0391 9.10938 32.0391 7.79688V7.69531ZM33.4922 7.86719C33.4922 8.80469 33.7083 9.55729 34.1406 10.125C34.5781 10.6927 35.1615 10.9766 35.8906 10.9766C36.625 10.9766 37.2083 10.6901 37.6406 10.1172C38.0729 9.53906 38.2891 8.73177 38.2891 7.69531C38.2891 6.76823 38.0677 6.01823 37.625 5.44531C37.1875 4.86719 36.6042 4.57812 35.875 4.57812C35.1615 4.57812 34.5859 4.86198 34.1484 5.42969C33.7109 5.9974 33.4922 6.8099 33.4922 7.86719ZM48.6875 7.86719C48.6875 9.15365 48.3932 10.1901 47.8047 10.9766C47.2161 11.763 46.4193 12.1562 45.4141 12.1562C44.388 12.1562 43.5807 11.8307 42.9922 11.1797V15.25H41.5469V3.54688H42.8672L42.9375 4.48438C43.526 3.75521 44.3438 3.39062 45.3906 3.39062C46.4062 3.39062 47.2083 3.77344 47.7969 4.53906C48.3906 5.30469 48.6875 6.36979 48.6875 7.73438V7.86719ZM47.2422 7.70312C47.2422 6.75 47.0391 5.9974 46.6328 5.44531C46.2266 4.89323 45.6693 4.61719 44.9609 4.61719C44.0859 4.61719 43.4297 5.00521 42.9922 5.78125V9.82031C43.4245 10.5911 44.0859 10.9766 44.9766 10.9766C45.6693 10.9766 46.2188 10.7031 46.625 10.1562C47.0365 9.60417 47.2422 8.78646 47.2422 7.70312ZM55.3984 10.0859L58.2734 3.54688H60.0781V12H58.6328V5.85156L55.8984 12H54.8984L52.1094 5.71875V12H50.6641V3.54688H52.5391L55.3984 10.0859ZM67.625 12C67.5417 11.8333 67.474 11.5365 67.4219 11.1094C66.75 11.8073 65.9479 12.1562 65.0156 12.1562C64.1823 12.1562 63.4974 11.9219 62.9609 11.4531C62.4297 10.9792 62.1641 10.3802 62.1641 9.65625C62.1641 8.77604 62.4974 8.09375 63.1641 7.60938C63.8359 7.11979 64.7786 6.875 65.9922 6.875H67.3984V6.21094C67.3984 5.70573 67.2474 5.30469 66.9453 5.00781C66.6432 4.70573 66.1979 4.55469 65.6094 4.55469C65.0938 4.55469 64.6615 4.6849 64.3125 4.94531C63.9635 5.20573 63.7891 5.52083 63.7891 5.89062H62.3359C62.3359 5.46875 62.4844 5.0625 62.7812 4.67188C63.0833 4.27604 63.4896 3.96354 64 3.73438C64.5156 3.50521 65.0807 3.39062 65.6953 3.39062C66.6693 3.39062 67.4323 3.63542 67.9844 4.125C68.5365 4.60938 68.8229 5.27865 68.8438 6.13281V10.0234C68.8438 10.7995 68.9427 11.4167 69.1406 11.875V12H67.625ZM65.2266 10.8984C65.6797 10.8984 66.1094 10.7812 66.5156 10.5469C66.9219 10.3125 67.2161 10.0078 67.3984 9.63281V7.89844H66.2656C64.4948 7.89844 63.6094 8.41667 63.6094 9.45312C63.6094 9.90625 63.7604 10.2604 64.0625 10.5156C64.3646 10.7708 64.7526 10.8984 65.2266 10.8984ZM71.2344 3.54688H72.6875V10.8203H76.5781V3.54688H78.0234V10.8203H79.0312L78.8906 14.5078H77.5938V12H71.2344V3.54688ZM86.0625 3.54688H87.5078V12H86.0625V5.83594L82.1641 12H80.7188V3.54688H82.1641V9.71875L86.0625 3.54688ZM89.4453 7.69531C89.4453 6.86719 89.6068 6.1224 89.9297 5.46094C90.2578 4.79948 90.7109 4.28906 91.2891 3.92969C91.8724 3.57031 92.5365 3.39062 93.2812 3.39062C94.4323 3.39062 95.362 3.78906 96.0703 4.58594C96.7839 5.38281 97.1406 6.44271 97.1406 7.76562V7.86719C97.1406 8.6901 96.9818 9.42969 96.6641 10.0859C96.3516 10.737 95.901 11.2448 95.3125 11.6094C94.7292 11.974 94.0573 12.1562 93.2969 12.1562C92.151 12.1562 91.2214 11.7578 90.5078 10.9609C89.7995 10.1641 89.4453 9.10938 89.4453 7.79688V7.69531ZM90.8984 7.86719C90.8984 8.80469 91.1146 9.55729 91.5469 10.125C91.9844 10.6927 92.5677 10.9766 93.2969 10.9766C94.0312 10.9766 94.6146 10.6901 95.0469 10.1172C95.4792 9.53906 95.6953 8.73177 95.6953 7.69531C95.6953 6.76823 95.474 6.01823 95.0312 5.44531C94.5938 4.86719 94.0104 4.57812 93.2812 4.57812C92.5677 4.57812 91.9922 4.86198 91.5547 5.42969C91.1172 5.9974 90.8984 6.8099 90.8984 7.86719ZM105.859 12H104.414V8.39062H100.531V12H99.0781V3.54688H100.531V7.21094H104.414V3.54688H105.859V12ZM115.094 12H113.648V8.39062H109.766V12H108.312V3.54688H109.766V7.21094H113.648V3.54688H115.094V12ZM119 6.46094H121.195C122.154 6.47135 122.911 6.72135 123.469 7.21094C124.026 7.70052 124.305 8.36458 124.305 9.20312C124.305 10.0469 124.018 10.724 123.445 11.2344C122.872 11.7448 122.102 12 121.133 12H117.555V3.54688H119V6.46094ZM127.32 12H125.867V3.54688H127.32V12ZM119 7.64062V10.8203H121.148C121.69 10.8203 122.109 10.6823 122.406 10.4062C122.703 10.125 122.852 9.74219 122.852 9.25781C122.852 8.78906 122.706 8.40625 122.414 8.10938C122.128 7.80729 121.724 7.65104 121.203 7.64062H119ZM135.312 3.54688H136.758V12H135.312V5.83594L131.414 12H129.969V3.54688H131.414V9.71875L135.312 3.54688ZM135.703 0.46875C135.703 1.09896 135.487 1.60677 135.055 1.99219C134.628 2.3724 134.065 2.5625 133.367 2.5625C132.669 2.5625 132.104 2.36979 131.672 1.98438C131.24 1.59896 131.023 1.09375 131.023 0.46875H132.203C132.203 0.833333 132.302 1.11979 132.5 1.32812C132.698 1.53125 132.987 1.63281 133.367 1.63281C133.732 1.63281 134.016 1.53125 134.219 1.32812C134.427 1.125 134.531 0.838542 134.531 0.46875H135.703ZM146.438 10.9766C146.953 10.9766 147.404 10.8203 147.789 10.5078C148.174 10.1953 148.388 9.80469 148.43 9.33594H149.797C149.771 9.82031 149.604 10.2812 149.297 10.7188C148.99 11.1562 148.578 11.5052 148.062 11.7656C147.552 12.026 147.01 12.1562 146.438 12.1562C145.286 12.1562 144.37 11.7734 143.688 11.0078C143.01 10.237 142.672 9.1849 142.672 7.85156V7.60938C142.672 6.78646 142.823 6.05469 143.125 5.41406C143.427 4.77344 143.859 4.27604 144.422 3.92188C144.99 3.56771 145.659 3.39062 146.43 3.39062C147.378 3.39062 148.164 3.67448 148.789 4.24219C149.419 4.8099 149.755 5.54688 149.797 6.45312H148.43C148.388 5.90625 148.18 5.45833 147.805 5.10938C147.435 4.75521 146.977 4.57812 146.43 4.57812C145.695 4.57812 145.125 4.84375 144.719 5.375C144.318 5.90104 144.117 6.66406 144.117 7.66406V7.9375C144.117 8.91146 144.318 9.66146 144.719 10.1875C145.12 10.7135 145.693 10.9766 146.438 10.9766ZM156.641 12C156.557 11.8333 156.49 11.5365 156.438 11.1094C155.766 11.8073 154.964 12.1562 154.031 12.1562C153.198 12.1562 152.513 11.9219 151.977 11.4531C151.445 10.9792 151.18 10.3802 151.18 9.65625C151.18 8.77604 151.513 8.09375 152.18 7.60938C152.852 7.11979 153.794 6.875 155.008 6.875H156.414V6.21094C156.414 5.70573 156.263 5.30469 155.961 5.00781C155.659 4.70573 155.214 4.55469 154.625 4.55469C154.109 4.55469 153.677 4.6849 153.328 4.94531C152.979 5.20573 152.805 5.52083 152.805 5.89062H151.352C151.352 5.46875 151.5 5.0625 151.797 4.67188C152.099 4.27604 152.505 3.96354 153.016 3.73438C153.531 3.50521 154.096 3.39062 154.711 3.39062C155.685 3.39062 156.448 3.63542 157 4.125C157.552 4.60938 157.839 5.27865 157.859 6.13281V10.0234C157.859 10.7995 157.958 11.4167 158.156 11.875V12H156.641ZM154.242 10.8984C154.695 10.8984 155.125 10.7812 155.531 10.5469C155.938 10.3125 156.232 10.0078 156.414 9.63281V7.89844H155.281C153.51 7.89844 152.625 8.41667 152.625 9.45312C152.625 9.90625 152.776 10.2604 153.078 10.5156C153.38 10.7708 153.768 10.8984 154.242 10.8984ZM165.594 3.54688H167.039V12H165.594V5.83594L161.695 12H160.25V3.54688H161.695V9.71875L165.594 3.54688ZM165.984 0.46875C165.984 1.09896 165.768 1.60677 165.336 1.99219C164.909 2.3724 164.346 2.5625 163.648 2.5625C162.951 2.5625 162.385 2.36979 161.953 1.98438C161.521 1.59896 161.305 1.09375 161.305 0.46875H162.484C162.484 0.833333 162.583 1.11979 162.781 1.32812C162.979 1.53125 163.268 1.63281 163.648 1.63281C164.013 1.63281 164.297 1.53125 164.5 1.32812C164.708 1.125 164.812 0.838542 164.812 0.46875H165.984ZM175.641 4.71875H172.805V12H171.359V4.71875H168.578V3.54688H175.641V4.71875ZM40.9062 29.8203L41.4062 29.2031C41.9688 28.474 42.2891 27.3802 42.3672 25.9219L42.5 22.5469H47.9453V29.8203H49.0312V33.4844H47.5859V31H41.6875V33.4844H40.2422L40.25 29.8203H40.9062ZM42.6172 29.8203H46.5V23.8828H43.8984L43.8125 25.8984C43.724 27.5807 43.3255 28.888 42.6172 29.8203ZM57.5625 22.5469V31H56.1094V23.7422H53.2344L53.0625 26.9062C52.9688 28.3594 52.724 29.3984 52.3281 30.0234C51.9375 30.6484 51.3151 30.974 50.4609 31H49.8828V29.7266L50.2969 29.6953C50.7656 29.6432 51.1016 29.3724 51.3047 28.8828C51.5078 28.3932 51.638 27.487 51.6953 26.1641L51.8516 22.5469H57.5625ZM66.3438 22.5469V31H64.8906V27.7109H62.7109L60.7188 31H59.1562L61.2812 27.4922C60.7396 27.2943 60.3229 26.9896 60.0312 26.5781C59.7448 26.1615 59.6016 25.6771 59.6016 25.125C59.6016 24.3542 59.8906 23.7344 60.4688 23.2656C61.0469 22.7917 61.8203 22.5521 62.7891 22.5469H66.3438ZM61.0547 25.1406C61.0547 25.5521 61.1953 25.8854 61.4766 26.1406C61.7578 26.3906 62.1302 26.5182 62.5938 26.5234H64.8906V23.7188H62.8125C62.276 23.7188 61.849 23.8516 61.5312 24.1172C61.2135 24.3776 61.0547 24.7188 61.0547 25.1406ZM78.9141 23.7188H76.0781V31H74.6328V23.7188H71.8516V22.5469H78.9141V23.7188ZM83.1797 28.8828L85.1484 22.5469H86.6953L83.2969 32.3047C82.7708 33.7109 81.9349 34.4141 80.7891 34.4141L80.5156 34.3906L79.9766 34.2891V33.1172L80.3672 33.1484C80.8568 33.1484 81.237 33.0495 81.5078 32.8516C81.7839 32.6536 82.0104 32.2917 82.1875 31.7656L82.5078 30.9062L79.4922 22.5469H81.0703L83.1797 28.8828ZM95.1328 26.8672C95.1328 28.1536 94.8385 29.1901 94.25 29.9766C93.6615 30.763 92.8646 31.1562 91.8594 31.1562C90.8333 31.1562 90.026 30.8307 89.4375 30.1797V34.25H87.9922V22.5469H89.3125L89.3828 23.4844C89.9714 22.7552 90.7891 22.3906 91.8359 22.3906C92.8516 22.3906 93.6536 22.7734 94.2422 23.5391C94.8359 24.3047 95.1328 25.3698 95.1328 26.7344V26.8672ZM93.6875 26.7031C93.6875 25.75 93.4844 24.9974 93.0781 24.4453C92.6719 23.8932 92.1146 23.6172 91.4062 23.6172C90.5312 23.6172 89.875 24.0052 89.4375 24.7812V28.8203C89.8698 29.5911 90.5312 29.9766 91.4219 29.9766C92.1146 29.9766 92.6641 29.7031 93.0703 29.1562C93.4818 28.6042 93.6875 27.7865 93.6875 26.7031ZM102.445 22.5469H103.891V31H102.445V24.8359L98.5469 31H97.1016V22.5469H98.5469V28.7188L102.445 22.5469ZM109.602 29.9766C110.117 29.9766 110.568 29.8203 110.953 29.5078C111.339 29.1953 111.552 28.8047 111.594 28.3359H112.961C112.935 28.8203 112.768 29.2812 112.461 29.7188C112.154 30.1562 111.742 30.5052 111.227 30.7656C110.716 31.026 110.174 31.1562 109.602 31.1562C108.451 31.1562 107.534 30.7734 106.852 30.0078C106.174 29.237 105.836 28.1849 105.836 26.8516V26.6094C105.836 25.7865 105.987 25.0547 106.289 24.4141C106.591 23.7734 107.023 23.276 107.586 22.9219C108.154 22.5677 108.823 22.3906 109.594 22.3906C110.542 22.3906 111.328 22.6745 111.953 23.2422C112.583 23.8099 112.919 24.5469 112.961 25.4531H111.594C111.552 24.9062 111.344 24.4583 110.969 24.1094C110.599 23.7552 110.141 23.5781 109.594 23.5781C108.859 23.5781 108.289 23.8438 107.883 24.375C107.482 24.901 107.281 25.6641 107.281 26.6641V26.9375C107.281 27.9115 107.482 28.6615 107.883 29.1875C108.284 29.7135 108.857 29.9766 109.602 29.9766ZM120.867 23.7188H118.031V31H116.586V23.7188H113.805V22.5469H120.867V23.7188ZM121.562 26.6953C121.562 25.8672 121.724 25.1224 122.047 24.4609C122.375 23.7995 122.828 23.2891 123.406 22.9297C123.99 22.5703 124.654 22.3906 125.398 22.3906C126.549 22.3906 127.479 22.7891 128.188 23.5859C128.901 24.3828 129.258 25.4427 129.258 26.7656V26.8672C129.258 27.6901 129.099 28.4297 128.781 29.0859C128.469 29.737 128.018 30.2448 127.43 30.6094C126.846 30.974 126.174 31.1562 125.414 31.1562C124.268 31.1562 123.339 30.7578 122.625 29.9609C121.917 29.1641 121.562 28.1094 121.562 26.7969V26.6953ZM123.016 26.8672C123.016 27.8047 123.232 28.5573 123.664 29.125C124.102 29.6927 124.685 29.9766 125.414 29.9766C126.148 29.9766 126.732 29.6901 127.164 29.1172C127.596 28.5391 127.812 27.7318 127.812 26.6953C127.812 25.7682 127.591 25.0182 127.148 24.4453C126.711 23.8672 126.128 23.5781 125.398 23.5781C124.685 23.5781 124.109 23.862 123.672 24.4297C123.234 24.9974 123.016 25.8099 123.016 26.8672ZM131.203 31V22.5469H134.5C135.625 22.5469 136.487 22.7448 137.086 23.1406C137.69 23.5312 137.992 24.1068 137.992 24.8672C137.992 25.2578 137.875 25.612 137.641 25.9297C137.406 26.2422 137.06 26.4818 136.602 26.6484C137.112 26.7682 137.521 27.0026 137.828 27.3516C138.141 27.7005 138.297 28.1172 138.297 28.6016C138.297 29.3776 138.01 29.9714 137.438 30.3828C136.87 30.7943 136.065 31 135.023 31H131.203ZM132.648 27.2891V29.8359H135.039C135.643 29.8359 136.094 29.724 136.391 29.5C136.693 29.276 136.844 28.9609 136.844 28.5547C136.844 27.7109 136.224 27.2891 134.984 27.2891H132.648ZM132.648 26.1328H134.516C135.87 26.1328 136.547 25.737 136.547 24.9453C136.547 24.1536 135.906 23.7448 134.625 23.7188H132.648V26.1328Z" fill="#666666"/>
</svg>
