<svg width="71" height="14" viewBox="0 0 71 14" fill="none" xmlns="http://www.w3.org/2000/svg">
<path d="M8.12209 9.64258C8.12209 9.14453 7.94631 8.76368 7.59475 8.5C7.24319 8.23047 6.61038 7.94922 5.69632 7.65625C4.78225 7.35743 4.05862 7.06446 3.52542 6.77735C2.07229 5.99219 1.34573 4.93458 1.34573 3.6045C1.34573 2.91309 1.53909 2.29786 1.92581 1.7588C2.31839 1.21388 2.87796 0.789073 3.60452 0.484386C4.33694 0.179698 5.15725 0.0273547 6.06546 0.0273547C6.97952 0.0273547 7.79397 0.194347 8.50881 0.528331C9.22366 0.856456 9.77737 1.32228 10.1699 1.92579C10.5684 2.52931 10.7676 3.21485 10.7676 3.98243H8.13088C8.13088 3.39649 7.94631 2.94239 7.57717 2.62013C7.20803 2.292 6.68948 2.12794 6.02151 2.12794C5.37698 2.12794 4.876 2.26563 4.51858 2.54102C4.16116 2.81056 3.98245 3.16798 3.98245 3.61329C3.98245 4.0293 4.19046 4.37794 4.60647 4.65919C5.02835 4.94044 5.64651 5.20411 6.46096 5.4502C7.96096 5.90137 9.05373 6.46094 9.73928 7.12891C10.4248 7.79688 10.7676 8.62891 10.7676 9.625C10.7676 10.7324 10.3487 11.6025 9.51076 12.2354C8.67288 12.8623 7.54495 13.1758 6.12698 13.1758C5.1426 13.1758 4.24612 12.9971 3.43753 12.6396C2.62893 12.2764 2.01077 11.7813 1.58304 11.1543C1.16116 10.5273 0.950225 9.80078 0.950225 8.97461H3.59573C3.59573 10.3867 4.43948 11.0928 6.12698 11.0928C6.75393 11.0928 7.24319 10.9668 7.59475 10.7148C7.94631 10.457 8.12209 10.0996 8.12209 9.64258ZM20.2598 7.45411H15.1973V10.8818H21.1387V13H12.5606V0.203136H21.1211V2.33888H15.1973V5.38868H20.2598V7.45411ZM22.6856 13V0.203136H26.6231C27.7481 0.203136 28.7529 0.458018 29.6377 0.967784C30.5283 1.47169 31.2227 2.19239 31.7207 3.12989C32.2188 4.06153 32.4678 5.12208 32.4678 6.31153V6.9004C32.4678 8.08985 32.2217 9.14746 31.7295 10.0732C31.2432 10.999 30.5547 11.7168 29.6641 12.2266C28.7734 12.7363 27.7686 12.9941 26.6494 13H22.6856ZM25.3223 2.33888V10.8818H26.5967C27.6279 10.8818 28.416 10.5449 28.9609 9.8711C29.5059 9.19727 29.7842 8.2334 29.7959 6.9795V6.30274C29.7959 5.00196 29.5264 4.01759 28.9873 3.34962C28.4482 2.67579 27.6602 2.33888 26.6231 2.33888H25.3223ZM44.9043 6.89161C44.9043 8.15137 44.6816 9.25586 44.2363 10.2051C43.791 11.1543 43.1523 11.8867 42.3203 12.4023C41.4941 12.918 40.5449 13.1758 39.4727 13.1758C38.4121 13.1758 37.4658 12.9209 36.6338 12.4111C35.8018 11.9014 35.1572 11.1748 34.7002 10.2314C34.2432 9.28223 34.0117 8.19239 34.0059 6.96192V6.32911C34.0059 5.06934 34.2314 3.96192 34.6826 3.00684C35.1397 2.04591 35.7813 1.31056 36.6074 0.800792C37.4395 0.285167 38.3887 0.0273547 39.4551 0.0273547C40.5215 0.0273547 41.4678 0.285167 42.2939 0.800792C43.126 1.31056 43.7676 2.04591 44.2187 3.00684C44.6758 3.96192 44.9043 5.06641 44.9043 6.32032V6.89161ZM42.2324 6.31153C42.2324 4.96973 41.9922 3.9502 41.5117 3.25294C41.0312 2.55567 40.3457 2.20704 39.4551 2.20704C38.5703 2.20704 37.8877 2.55274 37.4072 3.24415C36.9268 3.9297 36.6836 4.93751 36.6777 6.26758V6.89161C36.6777 8.19825 36.918 9.21192 37.3984 9.93262C37.8789 10.6533 38.5703 11.0137 39.4727 11.0137C40.3574 11.0137 41.0371 10.668 41.5117 9.97657C41.9863 9.2793 42.2266 8.26563 42.2324 6.93555V6.31153ZM57.2265 13H54.5898L49.457 4.58009V13H46.8203V0.203136H49.457L54.5986 8.64063V0.203136H57.2265V13ZM66.9121 10.3633H62.289L61.4101 13H58.6064L63.3701 0.203136H65.8135L70.6035 13H67.7998L66.9121 10.3633ZM63.001 8.22754H66.2002L64.5918 3.43751L63.001 8.22754Z" fill="black"/>
</svg>
