<svg width="647" height="88" viewBox="0 0 647 88" fill="none" xmlns="http://www.w3.org/2000/svg">
<path d="M10.459 0.00780436L19.6875 24.5293L28.8941 0.00780436H36.0791V32H30.542V21.4531L31.0913 7.34667L21.6431 32H17.666L8.23975 7.36865L8.78906 21.4531V32H3.25195V0.00780436H10.459ZM47.9004 15.7842H53.1299C55.0781 15.7842 56.7774 16.1211 58.2276 16.7949C59.6778 17.4687 60.7764 18.4136 61.5235 19.6294C62.2852 20.8452 62.666 22.2588 62.666 23.8701C62.666 26.3164 61.8018 28.2793 60.0733 29.7588C58.3447 31.2383 56.0449 31.9854 53.1738 32H42.561V8.22558H47.9004V15.7842ZM71.9605 32H66.6211V8.22558H71.9605V32ZM47.9004 20.0688V27.7373H53.1079C54.4116 27.7373 55.437 27.415 56.1841 26.7705C56.9458 26.1113 57.3267 25.1812 57.3267 23.98C57.3267 22.7788 56.9531 21.834 56.2061 21.1455C55.4736 20.4424 54.4776 20.0835 53.2178 20.0688H47.9004ZM119.509 18.355H89.6704V14.0483H119.509V18.355ZM149.7 25.4302L156.731 8.22558H163.411V32H158.071V16.2676L151.523 32H147.898L141.328 16.1797V32H135.989V8.22558H142.712L149.7 25.4302ZM183.626 32C183.391 31.5459 183.186 30.8062 183.01 29.7808C181.311 31.5532 179.231 32.4395 176.77 32.4395C174.382 32.4395 172.434 31.7583 170.925 30.396C169.417 29.0337 168.662 27.3491 168.662 25.3423C168.662 22.8081 169.6 20.8672 171.475 19.5195C173.364 18.1572 176.06 17.4761 179.561 17.4761H182.835V15.916C182.835 14.6855 182.49 13.7041 181.802 12.9717C181.113 12.2246 180.066 11.8511 178.66 11.8511C177.444 11.8511 176.448 12.1587 175.671 12.7739C174.895 13.3745 174.507 14.1436 174.507 15.0811H169.168C169.168 13.7773 169.6 12.5615 170.464 11.4336C171.328 10.291 172.5 9.39746 173.98 8.75292C175.474 8.10839 177.136 7.78613 178.967 7.78613C181.751 7.78613 183.97 8.48925 185.625 9.8955C187.28 11.2871 188.13 13.25 188.174 15.7842V26.5068C188.174 28.6455 188.474 30.3521 189.075 31.6265V32H183.626ZM177.759 28.1548C178.814 28.1548 179.802 27.8984 180.725 27.3857C181.663 26.873 182.366 26.1846 182.835 25.3203V20.8379H179.956C177.979 20.8379 176.492 21.1821 175.496 21.8706C174.5 22.5591 174.002 23.5332 174.002 24.793C174.002 25.8184 174.338 26.6387 175.012 27.2539C175.701 27.8545 176.616 28.1548 177.759 28.1548ZM213.97 8.22558V32H208.63V12.5322H201.907L201.467 20.8159C201.189 24.8003 200.42 27.6641 199.16 29.4072C197.915 31.1357 196.003 32 193.425 32H191.777L191.755 27.5615L192.854 27.4517C194.026 27.2905 194.876 26.5801 195.403 25.3203C195.945 24.0459 196.289 21.7314 196.436 18.3769L196.875 8.22558H213.97ZM230.12 32.4395C226.736 32.4395 223.989 31.3774 221.88 29.2534C219.785 27.1147 218.738 24.2729 218.738 20.728V20.0688C218.738 17.6958 219.192 15.5791 220.1 13.7187C221.023 11.8437 222.312 10.3862 223.967 9.34619C225.623 8.30615 227.468 7.78613 229.504 7.78613C232.742 7.78613 235.239 8.81884 236.997 10.8843C238.77 12.9497 239.656 15.8721 239.656 19.6514V21.8047H224.121C224.282 23.7676 224.934 25.3203 226.077 26.4629C227.234 27.6055 228.684 28.1768 230.427 28.1768C232.874 28.1768 234.866 27.188 236.404 25.2104L239.282 27.957C238.33 29.3779 237.056 30.4839 235.459 31.2749C233.877 32.0513 232.097 32.4395 230.12 32.4395ZM229.482 12.0708C228.018 12.0708 226.831 12.5835 225.923 13.6089C225.029 14.6343 224.458 16.0625 224.209 17.8936H234.382V17.498C234.265 15.7109 233.789 14.3633 232.954 13.4551C232.119 12.5322 230.962 12.0708 229.482 12.0708ZM263.958 32H258.618V22.3979H249.368V32H244.028V8.22558H249.368V18.1353H258.618V8.22558H263.958V32ZM275.405 15.7842H280.635C282.583 15.7842 284.282 16.1211 285.732 16.7949C287.183 17.4687 288.281 18.4136 289.028 19.6294C289.79 20.8452 290.171 22.2588 290.171 23.8701C290.171 26.3164 289.307 28.2793 287.578 29.7588C285.85 31.2383 283.55 31.9854 280.679 32H270.066V8.22558H275.405V15.7842ZM275.405 20.0688V27.7373H280.613C281.917 27.7373 282.942 27.415 283.689 26.7705C284.451 26.1113 284.832 25.1812 284.832 23.98C284.832 22.7788 284.458 21.834 283.711 21.1455C282.979 20.4424 281.982 20.0835 280.723 20.0688H275.405ZM302.893 22.5957H300.19V32H294.851V8.22558H300.19V17.7178H302.542L309.111 8.22558H315.703L307.112 19.6074L316.428 32H309.485L302.893 22.5957ZM333.567 32C333.333 31.5459 333.128 30.8062 332.952 29.7808C331.253 31.5532 329.172 32.4395 326.711 32.4395C324.324 32.4395 322.376 31.7583 320.867 30.396C319.358 29.0337 318.604 27.3491 318.604 25.3423C318.604 22.8081 319.541 20.8672 321.416 19.5195C323.306 18.1572 326.001 17.4761 329.502 17.4761H332.776V15.916C332.776 14.6855 332.432 13.7041 331.743 12.9717C331.055 12.2246 330.007 11.8511 328.601 11.8511C327.385 11.8511 326.389 12.1587 325.613 12.7739C324.836 13.3745 324.448 14.1436 324.448 15.0811H319.109C319.109 13.7773 319.541 12.5615 320.405 11.4336C321.27 10.291 322.441 9.39746 323.921 8.75292C325.415 8.10839 327.078 7.78613 328.909 7.78613C331.692 7.78613 333.911 8.48925 335.566 9.8955C337.222 11.2871 338.071 13.25 338.115 15.7842V26.5068C338.115 28.6455 338.416 30.3521 339.016 31.6265V32H333.567ZM327.7 28.1548C328.755 28.1548 329.744 27.8984 330.667 27.3857C331.604 26.873 332.307 26.1846 332.776 25.3203V20.8379H329.898C327.92 20.8379 326.433 21.1821 325.437 21.8706C324.441 22.5591 323.943 23.5332 323.943 24.793C323.943 25.8184 324.28 26.6387 324.954 27.2539C325.642 27.8545 326.558 28.1548 327.7 28.1548ZM362.747 8.22558V32H357.429V23.2769H352.442L347.366 32H341.829L347.432 22.3979C345.967 21.7827 344.839 20.9038 344.048 19.7612C343.272 18.6186 342.883 17.3076 342.883 15.8281C342.883 13.6162 343.733 11.8071 345.432 10.4009C347.146 8.97997 349.453 8.25488 352.354 8.22558H362.747ZM348.223 15.96C348.223 16.9561 348.589 17.769 349.321 18.3989C350.068 19.0142 351.021 19.3218 352.178 19.3218H357.429V12.4663H352.507C351.204 12.4663 350.164 12.7959 349.387 13.4551C348.611 14.1143 348.223 14.9492 348.223 15.96ZM369.426 39.207L366.548 37.4932C367.398 36.1602 367.976 34.9956 368.284 33.9995C368.606 33.0181 368.775 32.0146 368.789 30.9893V26.8364H373.601L373.579 30.6816C373.565 32.2344 373.169 33.7871 372.393 35.3398C371.631 36.9072 370.642 38.1963 369.426 39.207ZM409.9 32H404.561V22.3979H395.31V32H389.971V8.22558H395.31V18.1353H404.561V8.22558H409.9V32ZM414.602 19.8931C414.602 17.564 415.064 15.4692 415.986 13.6089C416.909 11.7339 418.206 10.2983 419.876 9.30224C421.546 8.2915 423.464 7.78613 425.632 7.78613C428.84 7.78613 431.441 8.81884 433.433 10.8843C435.44 12.9497 436.524 15.689 436.685 19.102L436.707 20.3545C436.707 22.6982 436.253 24.793 435.344 26.6387C434.451 28.4844 433.162 29.9126 431.477 30.9233C429.807 31.9341 427.874 32.4395 425.676 32.4395C422.322 32.4395 419.634 31.3262 417.612 29.0996C415.606 26.8584 414.602 23.8774 414.602 20.1567V19.8931ZM419.941 20.3545C419.941 22.8008 420.447 24.7197 421.458 26.1113C422.468 27.4883 423.875 28.1768 425.676 28.1768C427.478 28.1768 428.877 27.4736 429.873 26.0674C430.884 24.6611 431.389 22.603 431.389 19.8931C431.389 17.4907 430.869 15.5864 429.829 14.1802C428.804 12.7739 427.405 12.0708 425.632 12.0708C423.889 12.0708 422.505 12.7666 421.48 14.1582C420.454 15.5352 419.941 17.6006 419.941 20.3545ZM468.259 12.5322H457.932V32H452.615V8.22558H468.259V12.5322ZM469.841 19.8931C469.841 17.564 470.303 15.4692 471.226 13.6089C472.149 11.7339 473.445 10.2983 475.115 9.30224C476.785 8.2915 478.704 7.78613 480.872 7.78613C484.08 7.78613 486.68 8.81884 488.672 10.8843C490.679 12.9497 491.763 15.689 491.924 19.102L491.946 20.3545C491.946 22.6982 491.492 24.793 490.584 26.6387C489.69 28.4844 488.401 29.9126 486.716 30.9233C485.047 31.9341 483.113 32.4395 480.916 32.4395C477.561 32.4395 474.873 31.3262 472.852 29.0996C470.845 26.8584 469.841 23.8774 469.841 20.1567V19.8931ZM475.181 20.3545C475.181 22.8008 475.686 24.7197 476.697 26.1113C477.708 27.4883 479.114 28.1768 480.916 28.1768C482.717 28.1768 484.116 27.4736 485.112 26.0674C486.123 24.6611 486.629 22.603 486.629 19.8931C486.629 17.4907 486.109 15.5864 485.068 14.1802C484.043 12.7739 482.644 12.0708 480.872 12.0708C479.129 12.0708 477.744 12.7666 476.719 14.1582C475.693 15.5352 475.181 17.6006 475.181 20.3545ZM517.28 20.3545C517.28 24.0312 516.445 26.9683 514.776 29.1655C513.106 31.3481 510.864 32.4395 508.052 32.4395C505.444 32.4395 503.357 31.5825 501.79 29.8687V41.1406H496.45V8.22558H501.372L501.592 10.6426C503.159 8.73828 505.291 7.78613 507.986 7.78613C510.886 7.78613 513.157 8.87011 514.797 11.0381C516.453 13.1914 517.28 16.187 517.28 20.0249V20.3545ZM511.963 19.8931C511.963 17.52 511.487 15.6377 510.535 14.2461C509.597 12.8545 508.25 12.1587 506.492 12.1587C504.309 12.1587 502.742 13.0596 501.79 14.8613V25.4082C502.756 27.2539 504.339 28.1768 506.536 28.1768C508.235 28.1768 509.561 27.4956 510.513 26.1333C511.48 24.7563 511.963 22.6763 511.963 19.8931ZM521.521 27.7373C523.001 26.082 523.989 24.5146 524.487 23.0352C525 21.541 525.308 19.6367 525.41 17.3223L525.718 8.22558H542.219V27.7373H545.515V39.0752H540.198V32H524.949V39.0752H519.544L519.566 27.7373H521.521ZM527.783 27.7373H536.902V12.8179H530.903L530.75 17.3662C530.545 21.7314 529.556 25.1885 527.783 27.7373ZM563.533 32C563.298 31.5459 563.093 30.8062 562.918 29.7808C561.218 31.5532 559.138 32.4395 556.677 32.4395C554.29 32.4395 552.341 31.7583 550.833 30.396C549.324 29.0337 548.569 27.3491 548.569 25.3423C548.569 22.8081 549.507 20.8672 551.382 19.5195C553.272 18.1572 555.967 17.4761 559.468 17.4761H562.742V15.916C562.742 14.6855 562.398 13.7041 561.709 12.9717C561.021 12.2246 559.973 11.8511 558.567 11.8511C557.351 11.8511 556.355 12.1587 555.579 12.7739C554.802 13.3745 554.414 14.1436 554.414 15.0811H549.075C549.075 13.7773 549.507 12.5615 550.371 11.4336C551.235 10.291 552.407 9.39746 553.887 8.75292C555.381 8.10839 557.044 7.78613 558.875 7.78613C561.658 7.78613 563.877 8.48925 565.532 9.8955C567.188 11.2871 568.037 13.25 568.081 15.7842V26.5068C568.081 28.6455 568.381 30.3521 568.982 31.6265V32H563.533ZM557.666 28.1548C558.721 28.1548 559.71 27.8984 560.632 27.3857C561.57 26.873 562.273 26.1846 562.742 25.3203V20.8379H559.863C557.886 20.8379 556.399 21.1821 555.403 21.8706C554.407 22.5591 553.909 23.5332 553.909 24.793C553.909 25.8184 554.246 26.6387 554.92 27.2539C555.608 27.8545 556.524 28.1548 557.666 28.1548ZM592.713 8.22558V32H587.395V23.2769H582.407L577.332 32H571.795L577.398 22.3979C575.933 21.7827 574.805 20.9038 574.014 19.7612C573.237 18.6186 572.849 17.3076 572.849 15.8281C572.849 13.6162 573.699 11.8071 575.398 10.4009C577.112 8.97997 579.419 8.25488 582.319 8.22558H592.713ZM578.189 15.96C578.189 16.9561 578.555 17.769 579.287 18.3989C580.034 19.0142 580.986 19.3218 582.144 19.3218H587.395V12.4663H582.473C581.17 12.4663 580.13 12.7959 579.353 13.4551C578.577 14.1143 578.189 14.9492 578.189 15.96ZM2.83447 73.7373C4.31397 72.082 5.30274 70.5146 5.80078 69.0352C6.31348 67.541 6.6211 65.6367 6.72363 63.3223L7.03125 54.2256H23.5327V73.7373H26.8286V85.0752H21.5112V78H6.26221V85.0752H0.856934L0.878906 73.7373H2.83447ZM9.09668 73.7373H18.2153V58.8179H12.2168L12.063 63.3662C11.8579 67.7314 10.8691 71.1885 9.09668 73.7373ZM45.0879 54.2256H50.4053V78H45.0879V62.1357L35.7715 78H30.4541V54.2256H35.7715V70.0898L45.0879 54.2256ZM74.0918 60.7295C74.0918 61.7842 73.7696 62.7583 73.125 63.6519C72.4951 64.5308 71.6016 65.2339 70.4444 65.7612C73.169 66.7134 74.5313 68.5518 74.5313 71.2764C74.5313 73.459 73.645 75.2021 71.8726 76.5059C70.1001 77.7949 67.7271 78.4395 64.7534 78.4395C62.937 78.4395 61.2818 78.1392 59.7876 77.5386C58.2935 76.9233 57.1289 76.0591 56.294 74.9458C55.459 73.8179 55.0415 72.4849 55.0415 70.9468H60.3589C60.3589 71.9136 60.791 72.7266 61.6553 73.3857C62.5195 74.0303 63.6109 74.3525 64.9292 74.3525C66.2329 74.3525 67.2656 74.0522 68.0274 73.4517C68.8037 72.8364 69.1919 72.0381 69.1919 71.0566C69.1919 69.8994 68.855 69.0645 68.1812 68.5518C67.5073 68.0391 66.4673 67.7827 65.0611 67.7827H61.2378V63.9375H65.1929C67.5806 63.9082 68.7744 62.9268 68.7744 60.9932C68.7744 60.0264 68.4302 59.272 67.7417 58.73C67.0532 58.188 66.1084 57.917 64.9072 57.917C63.7354 57.917 62.7466 58.21 61.9409 58.7959C61.1353 59.3672 60.7324 60.0923 60.7324 60.9712H55.4151C55.4151 58.8765 56.294 57.1626 58.0518 55.8296C59.8096 54.4819 62.0435 53.8081 64.7534 53.8081C67.6978 53.8081 69.9903 54.4087 71.6309 55.6099C73.2715 56.811 74.0918 58.5176 74.0918 60.7295ZM93.2739 78C93.0396 77.5459 92.8345 76.8062 92.6587 75.7808C90.9595 77.5532 88.8794 78.4395 86.4185 78.4395C84.0308 78.4395 82.0825 77.7583 80.5737 76.396C79.065 75.0337 78.3106 73.3491 78.3106 71.3423C78.3106 68.8081 79.2481 66.8672 81.1231 65.5195C83.0127 64.1572 85.708 63.4761 89.209 63.4761H92.4829V61.916C92.4829 60.6855 92.1387 59.7041 91.4502 58.9717C90.7617 58.2246 89.7144 57.8511 88.3081 57.8511C87.0923 57.8511 86.0962 58.1587 85.3198 58.7739C84.5435 59.3745 84.1553 60.1436 84.1553 61.0811H78.8159C78.8159 59.7773 79.2481 58.5615 80.1123 57.4336C80.9766 56.291 82.1485 55.3975 83.6279 54.7529C85.1221 54.1084 86.7847 53.7861 88.6157 53.7861C91.3989 53.7861 93.6182 54.4893 95.2735 55.8955C96.9287 57.2871 97.7783 59.25 97.8223 61.7842V72.5068C97.8223 74.6455 98.1226 76.3521 98.7232 77.6265V78H93.2739ZM87.4072 74.1548C88.4619 74.1548 89.4507 73.8984 90.3736 73.3857C91.3111 72.873 92.0142 72.1846 92.4829 71.3203V66.8379H89.6045C87.627 66.8379 86.1402 67.1821 85.1441 67.8706C84.148 68.5591 83.6499 69.5332 83.6499 70.793C83.6499 71.8184 83.9868 72.6387 84.6607 73.2539C85.3491 73.8545 86.2647 74.1548 87.4072 74.1548ZM118.257 54.2256H123.574V78H118.257V62.1357L108.94 78H103.623V54.2256H108.94V70.0898L118.257 54.2256ZM120.762 45.1069C120.762 46.9526 120.117 48.4468 118.828 49.5893C117.539 50.7319 115.818 51.3032 113.665 51.3032C111.511 51.3032 109.79 50.7319 108.501 49.5893C107.212 48.4468 106.567 46.9526 106.567 45.1069H110.566C110.566 46.0737 110.837 46.8281 111.379 47.3701C111.936 47.8975 112.698 48.1611 113.665 48.1611C114.631 48.1611 115.386 47.8975 115.928 47.3701C116.47 46.8281 116.741 46.0737 116.741 45.1069H120.762ZM149.392 78H144.053V68.3979H134.802V78H129.463V54.2256H134.802V64.1353H144.053V54.2256H149.392V78ZM165.454 66.5522H153.918V62.2456H165.454V66.5522ZM179.627 74.1768C180.96 74.1768 182.065 73.7886 182.944 73.0122C183.823 72.2358 184.292 71.2764 184.351 70.1338H189.382C189.324 71.6133 188.862 72.9976 187.998 74.2866C187.134 75.561 185.962 76.5718 184.482 77.3188C183.003 78.0659 181.406 78.4395 179.692 78.4395C176.367 78.4395 173.731 77.3628 171.782 75.2095C169.834 73.0562 168.86 70.0825 168.86 66.2886V65.7393C168.86 62.1211 169.827 59.228 171.76 57.0601C173.694 54.8774 176.331 53.7861 179.67 53.7861C182.498 53.7861 184.797 54.6138 186.57 56.269C188.357 57.9097 189.294 60.0703 189.382 62.751H184.351C184.292 61.3887 183.823 60.2681 182.944 59.3892C182.08 58.5102 180.974 58.0708 179.627 58.0708C177.898 58.0708 176.565 58.7007 175.627 59.9604C174.69 61.2056 174.214 63.1025 174.199 65.6514V66.5083C174.199 69.0864 174.661 71.0127 175.584 72.2871C176.521 73.5469 177.869 74.1768 179.627 74.1768ZM212.124 58.4663H204.412V78H199.072V58.4663H191.448V54.2256H212.124V58.4663ZM224.275 70.3535L229.109 54.2256H234.8L225.352 81.6035C223.901 85.6025 221.44 87.6021 217.969 87.6021C217.192 87.6021 216.335 87.4702 215.398 87.2065V83.0757L216.409 83.1416C217.756 83.1416 218.767 82.8926 219.441 82.3945C220.129 81.9111 220.671 81.0908 221.067 79.9336L221.836 77.8901L213.486 54.2256H219.243L224.275 70.3535ZM236.755 73.7373C238.235 72.082 239.224 70.5146 239.722 69.0352C240.234 67.541 240.542 65.6367 240.645 63.3223L240.952 54.2256H257.454V73.7373H260.75V85.0752H255.432V78H240.183V85.0752H234.778L234.8 73.7373H236.755ZM243.018 73.7373H252.136V58.8179H246.138L245.984 63.3662C245.779 67.7314 244.79 71.1885 243.018 73.7373ZM279.009 54.2256H284.326V78H279.009V62.1357L269.692 78H264.375V54.2256H269.692V70.0898L279.009 54.2256ZM309.045 54.2256V78H303.728V69.2769H298.74L293.665 78H288.128L293.731 68.3979C292.266 67.7827 291.138 66.9038 290.347 65.7612C289.57 64.6186 289.182 63.3076 289.182 61.8281C289.182 59.6162 290.032 57.8071 291.731 56.4009C293.445 54.98 295.752 54.2549 298.652 54.2256H309.045ZM294.522 61.96C294.522 62.9561 294.888 63.769 295.62 64.3989C296.367 65.0142 297.319 65.3218 298.477 65.3218H303.728V58.4663H298.806C297.503 58.4663 296.462 58.7959 295.686 59.4551C294.91 60.1143 294.522 60.9492 294.522 61.96ZM341.016 54.2256H346.333V78H341.016V62.1357L331.699 78H326.382V54.2256H331.699V70.0898L341.016 54.2256ZM370.02 60.7295C370.02 61.7842 369.697 62.7583 369.053 63.6519C368.423 64.5308 367.529 65.2339 366.372 65.7612C369.097 66.7134 370.459 68.5518 370.459 71.2764C370.459 73.459 369.573 75.2021 367.8 76.5059C366.028 77.7949 363.655 78.4395 360.681 78.4395C358.865 78.4395 357.21 78.1392 355.715 77.5386C354.221 76.9233 353.057 76.0591 352.222 74.9458C351.387 73.8179 350.969 72.4849 350.969 70.9468H356.287C356.287 71.9136 356.719 72.7266 357.583 73.3857C358.447 74.0303 359.539 74.3525 360.857 74.3525C362.161 74.3525 363.193 74.0522 363.955 73.4517C364.732 72.8364 365.12 72.0381 365.12 71.0566C365.12 69.8994 364.783 69.0645 364.109 68.5518C363.435 68.0391 362.395 67.7827 360.989 67.7827H357.166V63.9375H361.121C363.508 63.9082 364.702 62.9268 364.702 60.9932C364.702 60.0264 364.358 59.272 363.67 58.73C362.981 58.188 362.036 57.917 360.835 57.917C359.663 57.917 358.674 58.21 357.869 58.7959C357.063 59.3672 356.66 60.0923 356.66 60.9712H351.343C351.343 58.8765 352.222 57.1626 353.98 55.8296C355.737 54.4819 357.971 53.8081 360.681 53.8081C363.626 53.8081 365.918 54.4087 367.559 55.6099C369.199 56.811 370.02 58.5176 370.02 60.7295ZM396.189 64.2891H392.41V78H386.873V46.0078H392.41V59.4551H395.464L404.868 46.0078H411.68L400.693 61.3227L412.647 78H405.967L396.189 64.2891ZM436.025 66.3545C436.025 70.0312 435.191 72.9683 433.521 75.1655C431.851 77.3481 429.609 78.4395 426.797 78.4395C424.19 78.4395 422.102 77.5825 420.535 75.8687V87.1406H415.195V54.2256H420.117L420.337 56.6426C421.904 54.7383 424.036 53.7861 426.731 53.7861C429.631 53.7861 431.902 54.8701 433.543 57.0381C435.198 59.1914 436.025 62.187 436.025 66.0249V66.3545ZM430.708 65.8931C430.708 63.52 430.232 61.6377 429.28 60.2461C428.342 58.8545 426.995 58.1587 425.237 58.1587C423.054 58.1587 421.487 59.0596 420.535 60.8613V71.4082C421.502 73.2539 423.084 74.1768 425.281 74.1768C426.98 74.1768 428.306 73.4956 429.258 72.1333C430.225 70.7563 430.708 68.6763 430.708 65.8931ZM454.768 78C454.534 77.5459 454.329 76.8062 454.153 75.7808C452.454 77.5532 450.374 78.4395 447.913 78.4395C445.525 78.4395 443.577 77.7583 442.068 76.396C440.559 75.0337 439.805 73.3491 439.805 71.3423C439.805 68.8081 440.742 66.8672 442.617 65.5195C444.507 64.1572 447.202 63.4761 450.703 63.4761H453.977V61.916C453.977 60.6855 453.633 59.7041 452.944 58.9717C452.256 58.2246 451.209 57.8511 449.802 57.8511C448.587 57.8511 447.59 58.1587 446.814 58.7739C446.038 59.3745 445.65 60.1436 445.65 61.0811H440.31C440.31 59.7773 440.742 58.5615 441.607 57.4336C442.471 56.291 443.643 55.3975 445.122 54.7529C446.616 54.1084 448.279 53.7861 450.11 53.7861C452.893 53.7861 455.112 54.4893 456.768 55.8955C458.423 57.2871 459.273 59.25 459.317 61.7842V72.5068C459.317 74.6455 459.617 76.3521 460.217 77.6265V78H454.768ZM448.901 74.1548C449.956 74.1548 450.945 73.8984 451.868 73.3857C452.805 72.873 453.508 72.1846 453.977 71.3203V66.8379H451.099C449.121 66.8379 447.634 67.1821 446.638 67.8706C445.642 68.5591 445.144 69.5332 445.144 70.793C445.144 71.8184 445.481 72.6387 446.155 73.2539C446.843 73.8545 447.759 74.1548 448.901 74.1548ZM474.675 74.1768C476.008 74.1768 477.114 73.7886 477.993 73.0122C478.872 72.2358 479.341 71.2764 479.4 70.1338H484.431C484.373 71.6133 483.911 72.9976 483.047 74.2866C482.183 75.561 481.011 76.5718 479.531 77.3188C478.052 78.0659 476.455 78.4395 474.741 78.4395C471.416 78.4395 468.779 77.3628 466.831 75.2095C464.883 73.0562 463.909 70.0825 463.909 66.2886V65.7393C463.909 62.1211 464.876 59.228 466.809 57.0601C468.743 54.8774 471.38 53.7861 474.719 53.7861C477.547 53.7861 479.846 54.6138 481.619 56.269C483.406 57.9097 484.343 60.0703 484.431 62.751H479.4C479.341 61.3887 478.872 60.2681 477.993 59.3892C477.129 58.5102 476.023 58.0708 474.675 58.0708C472.947 58.0708 471.614 58.7007 470.676 59.9604C469.739 61.2056 469.263 63.1025 469.248 65.6514V66.5083C469.248 69.0864 469.71 71.0127 470.632 72.2871C471.57 73.5469 472.918 74.1768 474.675 74.1768ZM508.601 78H503.262V68.3979H494.011V78H488.672V54.2256H494.011V64.1353H503.262V54.2256H508.601V78ZM513.303 65.8931C513.303 63.564 513.765 61.4692 514.688 59.6089C515.61 57.7339 516.907 56.2983 518.577 55.3022C520.247 54.2915 522.166 53.7861 524.334 53.7861C527.542 53.7861 530.142 54.8188 532.134 56.8843C534.141 58.9497 535.225 61.689 535.386 65.102L535.408 66.3545C535.408 68.6982 534.954 70.793 534.046 72.6387C533.152 74.4844 531.863 75.9126 530.178 76.9233C528.508 77.9341 526.575 78.4395 524.378 78.4395C521.023 78.4395 518.335 77.3262 516.314 75.0996C514.307 72.8584 513.303 69.8774 513.303 66.1567V65.8931ZM518.643 66.3545C518.643 68.8008 519.148 70.7197 520.159 72.1113C521.17 73.4883 522.576 74.1768 524.378 74.1768C526.179 74.1768 527.578 73.4736 528.574 72.0674C529.585 70.6611 530.09 68.603 530.09 65.8931C530.09 63.4907 529.57 61.5864 528.53 60.1802C527.505 58.7739 526.106 58.0708 524.334 58.0708C522.59 58.0708 521.206 58.7666 520.181 60.1582C519.155 61.5352 518.643 63.6006 518.643 66.3545ZM538.44 73.7373C539.92 72.082 540.908 70.5146 541.406 69.0352C541.919 67.541 542.227 65.6367 542.329 63.3223L542.637 54.2256H559.138V73.7373H562.434V85.0752H557.117V78H541.868V85.0752H536.463L536.484 73.7373H538.44ZM544.702 73.7373H553.821V58.8179H547.822L547.669 63.3662C547.464 67.7314 546.475 71.1885 544.702 73.7373ZM580.452 78C580.217 77.5459 580.012 76.8062 579.837 75.7808C578.137 77.5532 576.057 78.4395 573.596 78.4395C571.209 78.4395 569.26 77.7583 567.752 76.396C566.243 75.0337 565.488 73.3491 565.488 71.3423C565.488 68.8081 566.426 66.8672 568.301 65.5195C570.191 64.1572 572.886 63.4761 576.387 63.4761H579.661V61.916C579.661 60.6855 579.317 59.7041 578.628 58.9717C577.94 58.2246 576.892 57.8511 575.486 57.8511C574.27 57.8511 573.274 58.1587 572.498 58.7739C571.721 59.3745 571.333 60.1436 571.333 61.0811H565.994C565.994 59.7773 566.426 58.5615 567.29 57.4336C568.154 56.291 569.326 55.3975 570.806 54.7529C572.3 54.1084 573.963 53.7861 575.794 53.7861C578.577 53.7861 580.796 54.4893 582.451 55.8955C584.107 57.2871 584.956 59.25 585 61.7842V72.5068C585 74.6455 585.3 76.3521 585.901 77.6265V78H580.452ZM574.585 74.1548C575.64 74.1548 576.629 73.8984 577.551 73.3857C578.489 72.873 579.192 72.1846 579.661 71.3203V66.8379H576.782C574.805 66.8379 573.318 67.1821 572.322 67.8706C571.326 68.5591 570.828 69.5332 570.828 70.793C570.828 71.8184 571.165 72.6387 571.839 73.2539C572.527 73.8545 573.443 74.1548 574.585 74.1548ZM611.411 66.3545C611.411 70.0312 610.576 72.9683 608.906 75.1655C607.236 77.3481 604.995 78.4395 602.183 78.4395C599.575 78.4395 597.488 77.5825 595.921 75.8687V87.1406H590.581V54.2256H595.503L595.723 56.6426C597.29 54.7383 599.422 53.7861 602.117 53.7861C605.017 53.7861 607.288 54.8701 608.928 57.0381C610.584 59.1914 611.411 62.187 611.411 66.0249V66.3545ZM606.094 65.8931C606.094 63.52 605.618 61.6377 604.666 60.2461C603.728 58.8545 602.38 58.1587 600.623 58.1587C598.44 58.1587 596.873 59.0596 595.921 60.8613V71.4082C596.887 73.2539 598.469 74.1768 600.667 74.1768C602.366 74.1768 603.692 73.4956 604.644 72.1333C605.61 70.7563 606.094 68.6763 606.094 65.8931ZM630.154 78C629.92 77.5459 629.714 76.8062 629.539 75.7808C627.839 77.5532 625.759 78.4395 623.298 78.4395C620.911 78.4395 618.963 77.7583 617.454 76.396C615.945 75.0337 615.191 73.3491 615.191 71.3423C615.191 68.8081 616.128 66.8672 618.003 65.5195C619.893 64.1572 622.588 63.4761 626.089 63.4761H629.363V61.916C629.363 60.6855 629.019 59.7041 628.33 58.9717C627.642 58.2246 626.594 57.8511 625.188 57.8511C623.972 57.8511 622.976 58.1587 622.2 58.7739C621.423 59.3745 621.035 60.1436 621.035 61.0811H615.696C615.696 59.7773 616.128 58.5615 616.992 57.4336C617.857 56.291 619.028 55.3975 620.508 54.7529C622.002 54.1084 623.665 53.7861 625.496 53.7861C628.279 53.7861 630.498 54.4893 632.153 55.8955C633.809 57.2871 634.658 59.25 634.702 61.7842V72.5068C634.702 74.6455 635.003 76.3521 635.603 77.6265V78H630.154ZM624.287 74.1548C625.342 74.1548 626.331 73.8984 627.254 73.3857C628.191 72.873 628.894 72.1846 629.363 71.3203V66.8379H626.485C624.507 66.8379 623.02 67.1821 622.024 67.8706C621.028 68.5591 620.53 69.5332 620.53 70.793C620.53 71.8184 620.867 72.6387 621.541 73.2539C622.229 73.8545 623.145 74.1548 624.287 74.1548ZM643.623 72.375C644.619 72.375 645.388 72.6606 645.93 73.2319C646.472 73.7886 646.743 74.4917 646.743 75.3413C646.743 76.1763 646.472 76.8721 645.93 77.4287C645.388 77.9707 644.619 78.2417 643.623 78.2417C642.671 78.2417 641.917 77.9707 641.36 77.4287C640.803 76.8867 640.525 76.1909 640.525 75.3413C640.525 74.4917 640.796 73.7886 641.338 73.2319C641.88 72.6606 642.642 72.375 643.623 72.375Z" fill="black"/>
</svg>
