<svg width="18" height="20" viewBox="0 0 18 20" fill="none" xmlns="http://www.w3.org/2000/svg">
<path d="M0.206055 4.07031C0.206055 2.9362 0.574219 2.0179 1.31055 1.31543C2.04688 0.604492 3.01172 0.249023 4.20508 0.249023C5.41536 0.249023 6.38867 0.60026 7.125 1.30273C7.86133 1.99674 8.22949 2.94043 8.22949 4.13379V5.04785C8.22949 6.19043 7.86133 7.10872 7.125 7.80273C6.38867 8.49674 5.42383 8.84375 4.23047 8.84375C3.02865 8.84375 2.05534 8.49674 1.31055 7.80273C0.574219 7.10026 0.206055 6.15658 0.206055 4.97168V4.07031ZM2.64355 5.04785C2.64355 5.55566 2.78743 5.96615 3.0752 6.2793C3.37142 6.58398 3.75651 6.73633 4.23047 6.73633C4.70443 6.73633 5.08105 6.57975 5.36035 6.2666C5.63965 5.95345 5.7793 5.53451 5.7793 5.00977V4.07031C5.7793 3.5625 5.63965 3.15202 5.36035 2.83887C5.08105 2.52572 4.69596 2.36914 4.20508 2.36914C3.73958 2.36914 3.36296 2.52572 3.0752 2.83887C2.78743 3.14355 2.64355 3.57096 2.64355 4.12109V5.04785ZM9.04199 14.4678C9.04199 13.3252 9.41439 12.4069 10.1592 11.7129C10.904 11.0104 11.8688 10.6592 13.0537 10.6592C14.2555 10.6592 15.2246 11.0062 15.9609 11.7002C16.7057 12.3857 17.0781 13.3337 17.0781 14.5439V15.458C17.0781 16.5921 16.7142 17.5104 15.9863 18.2129C15.2585 18.9069 14.2894 19.2539 13.0791 19.2539C11.8604 19.2539 10.8828 18.9027 10.1465 18.2002C9.41016 17.4977 9.04199 16.5667 9.04199 15.4072V14.4678ZM11.4795 15.458C11.4795 15.9235 11.6318 16.3213 11.9365 16.6514C12.2412 16.9814 12.6221 17.1465 13.0791 17.1465C14.1117 17.1465 14.6279 16.5752 14.6279 15.4326V14.4678C14.6279 13.96 14.484 13.5537 14.1963 13.249C13.9085 12.9359 13.5277 12.7793 13.0537 12.7793C12.5798 12.7793 12.1989 12.9359 11.9111 13.249C11.6234 13.5537 11.4795 13.9727 11.4795 14.5059V15.458ZM4.9541 17.6162L3.16406 16.6514L12.1904 2.2041L13.9805 3.16895L4.9541 17.6162Z" fill="black"/>
</svg>
