<svg width="73" height="34" viewBox="0 0 73 34" fill="none" xmlns="http://www.w3.org/2000/svg">
<path d="M14.6001 33H8.25V8.52246L0.669434 10.8735V5.70996L13.9189 0.963867H14.6001V33ZM46.5483 19.7725C46.5483 24.1963 45.6328 27.5801 43.8018 29.9238C41.9707 32.2676 39.29 33.4395 35.7598 33.4395C32.2734 33.4395 29.6074 32.2896 27.7617 29.9897C25.916 27.6899 24.9712 24.394 24.9272 20.1021V14.2134C24.9272 9.74561 25.8501 6.35449 27.6958 4.04004C29.5562 1.72559 32.2295 0.568359 35.7158 0.568359C39.2021 0.568359 41.8682 1.71826 43.7139 4.01807C45.5596 6.30322 46.5044 9.5918 46.5483 13.8838V19.7725ZM40.1982 13.3125C40.1982 10.6611 39.832 8.73486 39.0996 7.53369C38.3818 6.31787 37.2539 5.70996 35.7158 5.70996C34.2217 5.70996 33.1157 6.28857 32.3979 7.4458C31.6948 8.58838 31.3213 10.3828 31.2773 12.8291V20.6074C31.2773 23.2148 31.6289 25.1558 32.332 26.4302C33.0498 27.6899 34.1924 28.3198 35.7598 28.3198C37.3125 28.3198 38.4331 27.7119 39.1216 26.4961C39.8101 25.2803 40.1689 23.4199 40.1982 20.915V13.3125ZM72.3882 19.7725C72.3882 24.1963 71.4727 27.5801 69.6416 29.9238C67.8105 32.2676 65.1299 33.4395 61.5996 33.4395C58.1133 33.4395 55.4473 32.2896 53.6016 29.9897C51.7559 27.6899 50.811 24.394 50.7671 20.1021V14.2134C50.7671 9.74561 51.6899 6.35449 53.5356 4.04004C55.396 1.72559 58.0693 0.568359 61.5557 0.568359C65.042 0.568359 67.708 1.71826 69.5537 4.01807C71.3994 6.30322 72.3442 9.5918 72.3882 13.8838V19.7725ZM66.0381 13.3125C66.0381 10.6611 65.6719 8.73486 64.9395 7.53369C64.2217 6.31787 63.0938 5.70996 61.5557 5.70996C60.0615 5.70996 58.9556 6.28857 58.2378 7.4458C57.5347 8.58838 57.1611 10.3828 57.1172 12.8291V20.6074C57.1172 23.2148 57.4688 25.1558 58.1719 26.4302C58.8896 27.6899 60.0322 28.3198 61.5996 28.3198C63.1523 28.3198 64.2729 27.7119 64.9614 26.4961C65.6499 25.2803 66.0088 23.4199 66.0381 20.915V13.3125Z" fill="black"/>
</svg>
