<svg width="73" height="34" viewBox="0 0 73 34" fill="none" xmlns="http://www.w3.org/2000/svg">
<path d="M14.6001 33H8.25V8.52246L0.669434 10.8735V5.70996L13.9189 0.963867H14.6001V33ZM43.8018 20.959H47.4272V26.0786H43.8018V33H37.4517V26.0786H24.334L24.0483 22.0796L37.3857 1.00781H43.8018V20.959ZM30.3765 20.959H37.4517V9.66504L37.0342 10.3901L30.3765 20.959ZM68.0815 0.678223V5.90771H67.4663C64.5952 5.95166 62.2808 6.69873 60.5229 8.14893C58.7798 9.59912 57.7324 11.6133 57.3809 14.1914C59.0801 12.4629 61.2261 11.5986 63.8188 11.5986C66.6021 11.5986 68.814 12.5947 70.4546 14.5869C72.0952 16.5791 72.9155 19.2012 72.9155 22.4531C72.9155 24.5332 72.4614 26.4155 71.5532 28.1001C70.6597 29.7847 69.3853 31.0957 67.73 32.0332C66.0894 32.9707 64.229 33.4395 62.1489 33.4395C58.7798 33.4395 56.0552 32.2676 53.9751 29.9238C51.9097 27.5801 50.877 24.4526 50.877 20.5415V18.2563C50.877 14.7847 51.5288 11.7231 52.8325 9.07178C54.1509 6.40576 56.0332 4.34766 58.4795 2.89746C60.9404 1.43262 63.7896 0.692871 67.0269 0.678223H68.0815ZM61.8853 16.6963C60.8599 16.6963 59.9297 16.9673 59.0947 17.5093C58.2598 18.0366 57.6445 18.7397 57.249 19.6187V21.5522C57.249 23.6763 57.6665 25.3389 58.5015 26.54C59.3364 27.7266 60.5083 28.3198 62.0171 28.3198C63.3794 28.3198 64.478 27.7852 65.313 26.7158C66.1626 25.6318 66.5874 24.2329 66.5874 22.519C66.5874 20.7759 66.1626 19.3696 65.313 18.3003C64.4634 17.231 63.3208 16.6963 61.8853 16.6963Z" fill="black"/>
</svg>
