<svg width="48" height="34" viewBox="0 0 48 34" fill="none" xmlns="http://www.w3.org/2000/svg">
<path d="M1.12012 17.2676L2.96582 1.00781H20.8955V6.30322H8.17334L7.38232 13.1807C8.89111 12.375 10.4951 11.9722 12.1943 11.9722C15.2412 11.9722 17.6289 12.917 19.3574 14.8066C21.0859 16.6963 21.9502 19.3403 21.9502 22.7388C21.9502 24.8042 21.5107 26.6572 20.6318 28.2979C19.7676 29.9238 18.5225 31.1909 16.8965 32.0991C15.2705 32.9927 13.3516 33.4395 11.1396 33.4395C9.20605 33.4395 7.41162 33.0513 5.75635 32.2749C4.10107 31.4839 2.79004 30.3779 1.82324 28.957C0.871094 27.5361 0.365723 25.9175 0.307129 24.1011H6.59131C6.72314 25.4341 7.18457 26.4741 7.97559 27.2212C8.78125 27.9536 9.82861 28.3198 11.1177 28.3198C12.5532 28.3198 13.6592 27.8071 14.4355 26.7817C15.2119 25.7417 15.6001 24.2769 15.6001 22.3872C15.6001 20.5708 15.1533 19.1792 14.2598 18.2124C13.3662 17.2456 12.0991 16.7622 10.4585 16.7622C8.94971 16.7622 7.72656 17.1577 6.78906 17.9487L6.17383 18.52L1.12012 17.2676ZM47.5483 19.7725C47.5483 24.1963 46.6328 27.5801 44.8018 29.9238C42.9707 32.2676 40.29 33.4395 36.7598 33.4395C33.2734 33.4395 30.6074 32.2896 28.7617 29.9897C26.916 27.6899 25.9712 24.394 25.9272 20.1021V14.2134C25.9272 9.74561 26.8501 6.35449 28.6958 4.04004C30.5562 1.72559 33.2295 0.568359 36.7158 0.568359C40.2021 0.568359 42.8682 1.71826 44.7139 4.01807C46.5596 6.30322 47.5044 9.5918 47.5483 13.8838V19.7725ZM41.1982 13.3125C41.1982 10.6611 40.832 8.73486 40.0996 7.53369C39.3818 6.31787 38.2539 5.70996 36.7158 5.70996C35.2217 5.70996 34.1157 6.28857 33.3979 7.4458C32.6948 8.58838 32.3213 10.3828 32.2773 12.8291V20.6074C32.2773 23.2148 32.6289 25.1558 33.332 26.4302C34.0498 27.6899 35.1924 28.3198 36.7598 28.3198C38.3125 28.3198 39.4331 27.7119 40.1216 26.4961C40.8101 25.2803 41.1689 23.4199 41.1982 20.915V13.3125Z" fill="black"/>
</svg>
